<?xml version="1.0" encoding="UTF-8" standalone="no"?>
<svg width="14px" height="15px" viewBox="0 0 14 15" version="1.1" xmlns="http://www.w3.org/2000/svg" xmlns:xlink="http://www.w3.org/1999/xlink">
    <!-- Generator: Sketch 3.8.1 (29687) - http://www.bohemiancoding.com/sketch -->
    <title>i_download</title>
    <desc>Created with Sketch.</desc>
    <defs></defs>
    <g id="home-logada-tema1" stroke="none" stroke-width="1" fill="none" fill-rule="evenodd">
        <g id="home-logada-1o-acesso" transform="translate(-755.000000, -2699.000000)" fill="#F2A869">
            <g id="eventos" transform="translate(0.000000, 2457.000000)">
                <g id="convite" transform="translate(122.000000, 92.000000)">
                    <path d="M638.836131,161.125914 C639.0615,161.351772 639.350981,161.46938 639.645839,161.489564 C639.680759,161.492567 639.714351,161.4999 639.750038,161.4999 C639.785237,161.4999 639.81855,161.492567 639.85319,161.489564 C640.148328,161.46966 640.438367,161.352052 640.663946,161.125914 L644.617508,157.160899 C645.112664,156.664975 645.112664,155.860993 644.617508,155.36507 C644.122632,154.869355 643.320047,154.869355 642.824891,155.36507 L641.000079,157.195329 L641.000079,151.250041 C641.000079,150.559547 640.440532,150 639.750038,150 C639.059614,150 638.500068,150.559547 638.500068,151.250041 L638.500068,157.195329 L636.675255,155.36507 C636.1801,154.869355 635.377515,154.869355 634.882639,155.36507 C634.387483,155.860993 634.387483,156.664975 634.882639,157.160899 L638.836131,161.125914 Z M645.264563,162.500058 L634.235305,162.500058 C633.552982,162.500058 633,163.059535 633,163.750029 C633,164.440244 633.553261,165 634.235305,165 L645.264563,165 C645.946885,165 646.499867,164.440244 646.499867,163.750029 C646.499867,163.059535 645.946885,162.500058 645.264563,162.500058 L645.264563,162.500058 Z" id="i_download"></path>
                </g>
            </g>
        </g>
    </g>
</svg>