<?xml version="1.0" encoding="UTF-8" standalone="no"?>
<svg width="19px" height="15px" viewBox="0 0 19 15" version="1.1" xmlns="http://www.w3.org/2000/svg" xmlns:xlink="http://www.w3.org/1999/xlink">
    <!-- Generator: Sketch 3.8.1 (29687) - http://www.bohemiancoding.com/sketch -->
    <title>i_email</title>
    <desc>Created with Sketch.</desc>
    <defs></defs>
    <g id="home-logada-tema1" stroke="none" stroke-width="1" fill="none" fill-rule="evenodd">
        <g id="home-logada-1o-acesso" transform="translate(-779.000000, -2699.000000)" fill="#F2A869">
            <g id="eventos" transform="translate(0.000000, 2457.000000)">
                <g id="convite" transform="translate(122.000000, 92.000000)">
                    <g id="i_email" transform="translate(657.000000, 150.000000)">
                        <path d="M1.82058974,4.61233696 C2.06044444,4.7823913 2.7835812,5.28684783 3.99,6.12619565 C5.19723077,6.96619565 6.12141026,7.61266304 6.76335043,8.06559783 C6.83382906,8.11516304 6.98420513,8.22342391 7.21317949,8.38972826 C7.44280342,8.55652174 7.63312821,8.69086957 7.78480342,8.79342391 C7.93631624,8.89663043 8.11965812,9.01125 8.33531624,9.13923913 C8.55032479,9.26673913 8.75331624,9.36228261 8.94364103,9.42586957 C9.13461538,9.48961957 9.31097436,9.52141304 9.47336752,9.52141304 L9.49431624,9.52141304 C9.6567094,9.52141304 9.83306838,9.48961957 10.0240427,9.42586957 C10.2142051,9.36228261 10.4171966,9.26608696 10.6323675,9.13923913 C10.8473761,9.01125 11.0307179,8.89663043 11.1828803,8.79342391 C11.3345556,8.69086957 11.5248803,8.55652174 11.7538547,8.38972826 C11.9834786,8.22342391 12.1338547,8.11516304 12.2041709,8.06559783 C12.853094,7.61201087 14.5043077,6.46125 17.157812,4.61168478 C17.6729231,4.25054348 18.1031026,3.8148913 18.4486752,3.30472826 C18.7944103,2.79456522 18.9676838,2.26027174 18.9676838,1.70038043 C18.9676838,1.23293478 18.7996068,0.832336957 18.4645897,0.49923913 C18.129735,0.166141304 17.7325214,0 17.2739231,0 L1.69376068,0 C1.15006838,0 0.732068376,0.184076087 0.438948718,0.552717391 C0.146478632,0.920869565 0,1.38130435 0,1.93418478 C0,2.38059783 0.194059829,2.86402174 0.58234188,3.3851087 C0.969974359,3.90538043 1.38294017,4.31494565 1.82058974,4.61233696" id="Fill-1"></path>
                        <path d="M17.9088803,5.74923913 C15.5947778,7.32163043 13.8376838,8.54380435 12.6380855,9.4151087 C12.236,9.71315217 11.909265,9.945 11.6586923,10.1111413 C11.4087692,10.2780978 11.0750513,10.4481522 10.659,10.6213043 C10.2421368,10.7952717 9.85466667,10.8818478 9.49431624,10.8818478 L9.47336752,10.8818478 C9.11301709,10.8818478 8.72489744,10.7952717 8.30868376,10.6213043 C7.89263248,10.4481522 7.55891453,10.2780978 7.30834188,10.1111413 C7.0584188,9.945 6.73168376,9.71315217 6.32959829,9.4151087 C5.37667521,8.7138587 3.62331624,7.49168478 1.06887179,5.74923913 C0.666623932,5.47972826 0.31017094,5.17157609 0,4.82445652 L0,13.2619565 C0,13.7300543 0.165641026,14.13 0.497247863,14.4630978 C0.829017094,14.7961957 1.22801709,14.962337 1.69376068,14.962337 L17.2739231,14.962337 C17.7395043,14.962337 18.1385043,14.7961957 18.4702735,14.4630978 C18.8020427,14.13 18.9676838,13.7300543 18.9676838,13.2619565 L18.9676838,4.82445652 C18.6638462,5.16456522 18.3111282,5.47271739 17.9088803,5.74923913" id="Fill-3"></path>
                    </g>
                </g>
            </g>
        </g>
    </g>
</svg>