<?xml version="1.0" encoding="UTF-8" standalone="no"?>
<svg width="28px" height="30px" viewBox="0 0 28 30" version="1.1" xmlns="http://www.w3.org/2000/svg" xmlns:xlink="http://www.w3.org/1999/xlink">
    <!-- Generator: Sketch 3.8.1 (29687) - http://www.bohemiancoding.com/sketch -->
    <title>i_eventlink</title>
    <desc>Created with Sketch.</desc>
    <defs>
        <polygon id="path-1" points="10.383078 0.054491018 0.134267263 0.054491018 0.134267263 6.32457964 10.383078 6.32457964"></polygon>
    </defs>
    <g id="home-logada-tema1" stroke="none" stroke-width="1" fill="none" fill-rule="evenodd">
        <g id="home-logada-1o-acesso" transform="translate(-524.000000, -3015.000000)">
            <g id="eventos" transform="translate(0.000000, 2457.000000)">
                <g id="convite" transform="translate(122.000000, 92.000000)">
                    <g id="i_eventlink" transform="translate(402.000000, 466.000000)">
                        <polygon id="Fill-1" fill="#EFEBDE" points="1.05912258 27.945509 24.8513032 27.945509 24.8513032 10.5985868 1.05912258 10.5985868"></polygon>
                        <polygon id="Fill-2" fill="#DDD8C2" points="0 10.7798323 25.9105935 10.7798323 25.9105935 6.3451018 0 6.3451018"></polygon>
                        <g id="Group-7" transform="translate(0.000000, 10.508383)">
                            <polygon id="Fill-3" fill="#D5D0BB" points="1.05912258 0.904550898 24.8513032 0.904550898 24.8513032 0.271449102 1.05912258 0.271449102"></polygon>
                            <polygon id="Fill-5" fill="#E6E6E6" points="0 0.61699115 25.9105935 0.61699115 25.9105935 0.12742515 0 0.12742515"></polygon>
                        </g>
                        <polygon id="Fill-8" fill="#F2A869" points="11.0815355 27.945509 14.829729 27.945509 14.829729 6.3451018 11.0815355 6.3451018"></polygon>
                        <g id="Group-14" transform="translate(3.858065, 0.113174)">
                            <g id="Group-11" transform="translate(7.716129, 0.000000)">
                                <mask id="mask-2" fill="white">
                                    <use xlink:href="#path-1"></use>
                                </mask>
                                <g id="Clip-10"></g>
                                <path d="M3.4944,3.90752575 L7.91406452,3.92228024 L7.91557419,5.12342994 L7.91557419,3.92228024 C7.92580645,3.92228024 7.93503226,3.92194491 7.94258065,3.92144192 C8.00699355,3.78160958 8.00581935,3.3824 7.82717419,3.10491497 C7.61984516,2.7829988 7.02905806,2.45672335 6.30139355,2.45672335 C6.09507097,2.45672335 5.89814194,2.48405269 5.71563871,2.53770539 C5.16829677,2.69883114 4.21904516,3.31281916 3.4944,3.90752575 M7.91557419,6.32457964 L7.90584516,6.32457964 L0.756851613,6.30077126 L0.402916129,5.75166946 C0.226954839,5.47804072 -0.0246580645,4.90093892 0.26956129,4.11140599 C0.868232258,2.50501078 3.75976774,0.608723353 5.03712258,0.233154491 C5.44020645,0.114615569 5.86543226,0.0544239521 6.30139355,0.0544239521 C7.77181935,0.0544239521 9.16390968,0.741681437 9.84863226,1.80534611 C10.4811871,2.78886707 10.5608645,4.14007665 10.0415355,5.09107066 C9.61345806,5.87490299 8.83849032,6.32457964 7.91557419,6.32457964" id="Fill-9" fill="#F2A869" mask="url(#mask-2)"></path>
                            </g>
                            <path d="M2.53612387,3.92135808 C2.54367226,3.92186108 2.55256258,3.92219641 2.56329806,3.92219641 L2.56296258,5.12334611 L2.56464,3.92219641 L6.98430452,3.90744192 C6.25915613,3.31290299 5.31074323,2.69874731 4.76289806,2.53762156 C4.58056258,2.48396886 4.38363355,2.45680719 4.17714323,2.45680719 C3.44914323,2.45680719 2.85885935,2.78291497 2.65136258,3.1049988 C2.47288516,3.38248383 2.47154323,3.78169341 2.53612387,3.92135808 L2.53612387,3.92135808 Z M2.56296258,6.32449581 C1.63971097,6.32449581 0.864910968,5.87481916 0.43700129,5.09081916 C-0.08216,4.13982515 -0.00298580645,2.7889509 0.630072258,1.80542994 C1.31445935,0.741765269 2.70688516,0.0545077844 4.17714323,0.0545077844 C4.61327226,0.0545077844 5.03849806,0.114531737 5.44141419,0.233070659 C6.71893677,0.608807186 9.61047226,2.50509461 10.2089755,4.11148982 C10.5031948,4.90085509 10.2515819,5.47778922 10.0752852,5.75158563 L9.72218839,6.30085509 L2.56296258,6.32449581 Z" id="Fill-12" fill="#F2A869"></path>
                        </g>
                        <path d="M24.7975273,19 C26.5224463,19 27.7635919,20.4009525 27.9215333,22.0748825 C27.9215333,22.0748825 28.0067222,22.4902559 27.8195554,23.2358139 C27.5664761,24.2562147 26.973885,25.1597141 26.1723636,25.8493085 L21.9701278,29.4440296 L17.7685138,25.8493085 C16.9669924,25.1597141 16.3737795,24.2562147 16.121322,23.2358139 C15.9341552,22.4902559 16.0193441,22.0748825 16.0193441,22.0748825 C16.1747982,20.4009525 17.4184312,19 19.1433501,19 C20.4230484,19 21.4869764,20.00299 21.9701278,21.0886816 C22.4514138,20.00299 23.517829,19 24.7975273,19 Z" id="Path" fill="#E9666A"></path>
                    </g>
                </g>
            </g>
        </g>
    </g>
</svg>