<?xml version="1.0" encoding="UTF-8" standalone="no"?>
<svg width="30px" height="31px" viewBox="0 0 30 31" version="1.1" xmlns="http://www.w3.org/2000/svg" xmlns:xlink="http://www.w3.org/1999/xlink">
    <!-- Generator: Sketch 3.8.1 (29687) - http://www.bohemiancoding.com/sketch -->
    <title>i_eventdate</title>
    <desc>Created with Sketch.</desc>
    <defs>
        <polygon id="path-1" points="12.7832609 11.3473191 12.7832609 0.265808511 0.261072277 0.265808511 0.261072277 11.3473191"></polygon>
    </defs>
    <g id="home-logada-tema1" stroke="none" stroke-width="1" fill="none" fill-rule="evenodd">
        <g id="home-logada-1o-acesso" transform="translate(-523.000000, -2901.000000)">
            <g id="eventos" transform="translate(0.000000, 2457.000000)">
                <g id="convite" transform="translate(122.000000, 92.000000)">
                    <g id="i_eventdate" transform="translate(401.000000, 352.000000)">
                        <polygon id="Fill-1" fill="#F2A869" points="24.0006522 2.10991277 24.0006522 4.21989149 20.3471739 4.21989149 20.3471739 2.10991277 7.82608696 2.10991277 7.82608696 4.21989149 4.1726087 4.21989149 4.1726087 2.10991277 0 2.10991277 0 7.91482766 28.1732609 7.91482766 28.1732609 2.10991277"></polygon>
                        <polygon id="Fill-2" fill="#EFECDE" points="4.17267391 7.91489362 6.52173912e-05 7.91489362 6.52173912e-05 30.6029362 28.1733261 30.6029362 28.1733261 7.91489362"></polygon>
                        <path d="M19.3056522,16.3581064 L22.9558696,16.3581064 L22.9558696,12.6631702 L19.3056522,12.6631702 L19.3056522,16.3581064 Z M19.3056522,21.106383 L22.9558696,21.106383 L22.9558696,17.4114468 L19.3056522,17.4114468 L19.3056522,21.106383 Z M19.3056522,25.8546596 L22.9558696,25.8546596 L22.9558696,22.1630213 L19.3056522,22.1630213 L19.3056522,25.8546596 Z M14.6073913,25.8546596 L18.2608696,25.8546596 L18.2608696,22.1630213 L14.6073913,22.1630213 L14.6073913,25.8546596 Z M9.9123913,25.8546596 L13.5658696,25.8546596 L13.5658696,22.1630213 L9.9123913,22.1630213 L9.9123913,25.8546596 Z M5.2173913,25.8546596 L8.87086957,25.8546596 L8.87086957,22.1630213 L5.2173913,22.1630213 L5.2173913,25.8546596 Z M5.2173913,21.106383 L8.87086957,21.106383 L8.87086957,17.4114468 L5.2173913,17.4114468 L5.2173913,21.106383 Z M5.2173913,16.3581064 L8.87086957,16.3581064 L8.87086957,12.6631702 L5.2173913,12.6631702 L5.2173913,16.3581064 Z M9.9123913,16.3581064 L13.5658696,16.3581064 L13.5658696,12.6631702 L9.9123913,12.6631702 L9.9123913,16.3581064 Z M9.9123913,21.106383 L13.5658696,21.106383 L13.5658696,17.4114468 L9.9123913,17.4114468 L9.9123913,21.106383 Z M14.6073913,21.106383 L18.2608696,21.106383 L18.2608696,17.4114468 L14.6073913,17.4114468 L14.6073913,21.106383 Z M14.6073913,16.3581064 L18.2608696,16.3581064 L18.2608696,12.6631702 L14.6073913,12.6631702 L14.6073913,16.3581064 Z M19.3056522,11.6098298 L4.1726087,11.6098298 L4.1726087,26.9112979 L24.0006522,26.9112979 L24.0006522,11.6098298 L19.3056522,11.6098298 Z" id="Fill-3" fill="#D5D0BB"></path>
                        <polygon id="Fill-4" fill="#94A7B2" points="4.1726087 4.21995745 7.82608696 4.21995745 7.82608696 0 4.1726087 0"></polygon>
                        <polygon id="Fill-5" fill="#94A7B2" points="20.3471739 4.21995745 24.0006522 4.21995745 24.0006522 0 20.3471739 0"></polygon>
                        <polygon id="Fill-6" fill="#F2A869" points="9.9123913 21.106383 13.5658696 21.106383 13.5658696 17.4114468 9.9123913 17.4114468"></polygon>
                        <g id="Group-9" transform="translate(16.956522, 18.730596)">
                            <mask id="mask-2" fill="white">
                                <use xlink:href="#path-1"></use>
                            </mask>
                            <g id="Clip-8"></g>
                            <path d="M6.52173913,2.48131915 C7.02586957,1.32970213 8.14434783,0.265808511 9.48717391,0.265808511 C11.2956522,0.265808511 12.6,1.75512766 12.7630435,3.52740426 C12.7630435,3.52740426 12.8523913,3.968 12.656087,4.76146809 C12.3913043,5.84119149 11.7697826,6.79955319 10.9291304,7.53102128 L6.52173913,11.3473191 L2.11434783,7.53102128 C1.27369565,6.79955319 0.652173913,5.84119149 0.387391304,4.76146809 C0.193695652,3.968 0.280434783,3.52740426 0.280434783,3.52740426 C0.443478261,1.75512766 1.74782609,0.265808511 3.55630435,0.265808511 C4.89913043,0.265808511 6.0176087,1.32970213 6.52173913,2.48131915" id="Fill-7" fill="#E9666A" mask="url(#mask-2)"></path>
                        </g>
                    </g>
                </g>
            </g>
        </g>
    </g>
</svg>