<?xml version="1.0" encoding="UTF-8" standalone="no"?>
<svg width="31px" height="31px" viewBox="0 0 31 31" version="1.1" xmlns="http://www.w3.org/2000/svg" xmlns:xlink="http://www.w3.org/1999/xlink">
    <!-- Generator: Sketch 3.8.1 (29687) - http://www.bohemiancoding.com/sketch -->
    <title>i_eventtime</title>
    <desc>Created with Sketch.</desc>
    <defs></defs>
    <g id="home-logada-tema1" stroke="none" stroke-width="1" fill="none" fill-rule="evenodd">
        <g id="home-logada-1o-acesso" transform="translate(-678.000000, -2901.000000)">
            <g id="eventos" transform="translate(0.000000, 2457.000000)">
                <g id="convite" transform="translate(122.000000, 92.000000)">
                    <g id="i_eventtime" transform="translate(556.000000, 352.000000)">
                        <path d="M15.0282276,30.0564552 C6.72866071,30.0564552 0,23.3284422 0,15.0282276 C0,6.72866071 6.72866071,0 15.0282276,0 C23.3284422,0 30.0564552,6.72866071 30.0564552,15.0282276 C30.0564552,23.3284422 23.3284422,30.0564552 15.0282276,30.0564552 Z" id="Fill-1" fill="#EFEBDE"></path>
                        <path d="M15.0282276,0 C6.72866071,0 0,6.72866071 0,15.0282276 C0,23.3284422 6.72866071,30.0564552 15.0282276,30.0564552 C23.3284422,30.0564552 30.0564552,23.3284422 30.0564552,15.0282276 C30.0564552,6.72866071 23.3284422,0 15.0282276,0 M15.0282276,2.07230053 C22.1721258,2.07230053 27.9841546,7.8849772 27.9841546,15.0282276 C27.9841546,22.1721258 22.1721258,27.9841546 15.0282276,27.9841546 C7.8849772,27.9841546 2.07230053,22.1721258 2.07230053,15.0282276 C2.07230053,7.8849772 7.8849772,2.07230053 15.0282276,2.07230053" id="Fill-3" fill="#F2A869"></path>
                        <path d="M15.0282276,3.04658625 C14.7425494,3.04658625 14.5093427,3.27914514 14.5093427,3.56547112 L14.5093427,4.084356 C14.5093427,4.37003419 14.7425494,4.6006497 15.0282276,4.6006497 C15.3145536,4.6006497 15.5471125,4.37003419 15.5471125,4.084356 L15.5471125,3.56547112 C15.5471125,3.27914514 15.3145536,3.04658625 15.0282276,3.04658625" id="Fill-5" fill="#F7CBA5"></path>
                        <path d="M15.0282276,25.330133 C14.7425494,25.330133 14.5093427,25.5626919 14.5093427,25.8483701 L14.5093427,26.3672549 C14.5093427,26.6535809 14.7425494,26.8861398 15.0282276,26.8861398 C15.3145536,26.8861398 15.5471125,26.6535809 15.5471125,26.3672549 L15.5471125,25.8483701 C15.5471125,25.5626919 15.3145536,25.330133 15.0282276,25.330133" id="Fill-7" fill="#F7CBA5"></path>
                        <path d="M26.430739,14.4490976 L25.9118541,14.4490976 C25.6261759,14.4490976 25.3929692,14.6790653 25.3929692,14.9653913 C25.3929692,15.2536607 25.6261759,15.4836284 25.9118541,15.4836284 L26.430739,15.4836284 C26.7164172,15.4836284 26.9496239,15.2536607 26.9496239,14.9653913 C26.9496239,14.6790653 26.7164172,14.4490976 26.430739,14.4490976" id="Fill-9" fill="#F7CBA5"></path>
                        <path d="M4.14460106,14.4490976 L3.62895517,14.4490976 C3.34262918,14.4490976 3.11007029,14.6790653 3.11007029,14.9653913 C3.11007029,15.2536607 3.34262918,15.4836284 3.62895517,15.4836284 L4.14460106,15.4836284 C4.43092705,15.4836284 4.66348594,15.2536607 4.66348594,14.9653913 C4.66348594,14.6790653 4.43092705,14.4490976 4.14460106,14.4490976" id="Fill-11" fill="#F7CBA5"></path>
                        <path d="M22.7234005,6.53885638 L22.3567477,6.90291793 C22.1539875,7.10567819 22.1539875,7.43475874 22.3567477,7.6368712 C22.457804,7.73792743 22.5918978,7.78845555 22.7234005,7.78845555 C22.8574943,7.78845555 22.988997,7.73792743 23.090701,7.6368712 L23.4573537,7.27021847 C23.6594662,7.06745821 23.6594662,6.74096884 23.4573537,6.53885638 C23.2545935,6.33350494 22.9261607,6.33350494 22.7234005,6.53885638" id="Fill-13" fill="#F7CBA5"></path>
                        <path d="M6.96640198,22.2958549 L6.60169263,22.6599164 C6.39698898,22.8652679 6.39698898,23.1917572 6.60169263,23.3938697 C6.70080547,23.4955737 6.83489932,23.5461018 6.96640198,23.5461018 C7.10049582,23.5461018 7.23199848,23.4955737 7.33305471,23.3938697 L7.70035524,23.0272169 C7.90246771,22.8244567 7.90246771,22.4979673 7.70035524,22.2958549 C7.49759498,22.0930946 7.16851444,22.0930946 6.96640198,22.2958549" id="Fill-15" fill="#F7CBA5"></path>
                        <path d="M23.090701,22.2958549 C22.8879407,22.0930946 22.5614514,22.0930946 22.3567477,22.2958549 C22.1539875,22.4979673 22.1539875,22.8244567 22.3567477,23.0272169 L22.7234005,23.3938697 C22.8244567,23.4955737 22.9585505,23.5461018 23.090701,23.5461018 C23.2222036,23.5461018 23.3562975,23.4955737 23.4573537,23.3938697 C23.6594662,23.1917572 23.6594662,22.8652679 23.4573537,22.6599164 L23.090701,22.2958549 Z" id="Fill-17" fill="#8697CB"></path>
                        <path d="M7.33305471,6.53885638 C7.13094225,6.33350494 6.80445289,6.33350494 6.60169263,6.53885638 C6.39698898,6.74096884 6.39698898,7.06745821 6.60169263,7.27021847 L6.96640198,7.6368712 C7.06745821,7.73792743 7.20155205,7.78845555 7.33305471,7.78845555 C7.46714856,7.78845555 7.59865122,7.73792743 7.70035524,7.6368712 C7.90246771,7.43475874 7.90246771,7.10567819 7.70035524,6.90291793 L7.33305471,6.53885638 Z" id="Fill-19" fill="#F7CBA5"></path>
                        <path d="M13.4748119,15.4836284 L9.32697188,15.4836284 C9.04129369,15.4836284 8.81132599,15.2536607 8.81132599,14.9653913 C8.81132599,14.6790653 9.04129369,14.4490976 9.32697188,14.4490976 L13.4748119,14.4490976 C13.7604901,14.4490976 13.9936968,14.6790653 13.9936968,14.9653913 C13.9936968,15.2536607 13.7604901,15.4836284 13.4748119,15.4836284" id="Fill-21" fill="#818F97"></path>
                        <path d="M14.5093427,13.4113279 L14.5093427,7.71007219 C14.5093427,7.424394 14.7425494,7.19183511 15.0282276,7.19183511 C15.3145536,7.19183511 15.5471125,7.424394 15.5471125,7.71007219 L15.5471125,13.4113279 C15.5471125,13.6976539 15.3145536,13.9302128 15.0282276,13.9302128 C14.7425494,13.9302128 14.5093427,13.6976539 14.5093427,13.4113279 Z" id="Fill-23" fill="#818F97"></path>
                        <path d="M15.0282276,13.9302128 C14.4562234,13.9302128 13.9936968,14.3959783 13.9936968,14.9653913 C13.9936968,15.5367477 14.4562234,16.0025133 15.0282276,16.0025133 C15.6002318,16.0025133 16.0659973,15.5367477 16.0659973,14.9653913 C16.0659973,14.3959783 15.6002318,13.9302128 15.0282276,13.9302128 M15.0282276,17.0402831 C13.884867,17.0402831 12.9559271,16.1087519 12.9559271,14.9653913 C12.9559271,13.8239742 13.884867,12.892443 15.0282276,12.892443 C16.1722359,12.892443 17.1005281,13.8239742 17.1005281,14.9653913 C17.1005281,16.1087519 16.1722359,17.0402831 15.0282276,17.0402831" id="Fill-25" fill="#818F97"></path>
                        <path d="M23.5227812,21.3520156 C24.0241755,20.2209631 25.1351463,19.1760676 26.4683112,19.1760676 C28.2652983,19.1760676 29.5582998,20.6355528 29.72284,22.3794206 C29.72284,22.3794206 29.8115881,22.8121486 29.6166014,23.5888564 C29.3529483,24.6518902 28.7355984,25.5931383 27.9005889,26.3115445 L23.5227812,30.0564552 L19.1456212,26.3115445 C18.3106117,25.5931383 17.692614,24.6518902 17.4296087,23.5888564 C17.234622,22.8121486 17.3233701,22.3794206 17.3233701,22.3794206 C17.4853191,20.6355528 18.7809119,19.1760676 20.5778989,19.1760676 C21.9110638,19.1760676 23.0194434,20.2209631 23.5227812,21.3520156" id="Fill-27" fill="#E9666A"></path>
                    </g>
                </g>
            </g>
        </g>
    </g>
</svg>