<?xml version="1.0" encoding="UTF-8" standalone="no"?>
<svg width="164px" height="65px" viewBox="0 0 164 65" version="1.1" xmlns="http://www.w3.org/2000/svg" xmlns:xlink="http://www.w3.org/1999/xlink">
    <!-- Generator: Sketch 3.8.1 (29687) - http://www.bohemiancoding.com/sketch -->
    <title>logo</title>
    <desc>Created with Sketch.</desc>
    <defs>
        <polygon id="path-1" points="15.8908657 24.1191832 15.8908657 0.503460882 0.211366891 0.503460882 0.211366891 24.1191832 15.8908657 24.1191832"></polygon>
        <polygon id="path-3" points="0 0.405226866 0 6.38327164 7.99304699 6.38327164 7.99304699 0.405226866 3.31733501e-20 0.405226866"></polygon>
    </defs>
    <g id="Symbols" stroke="none" stroke-width="1" fill="none" fill-rule="evenodd">
        <g id="Menu-logado" transform="translate(-42.000000, -16.000000)">
            <g id="Menu">
                <g id="logo" transform="translate(42.000000, 16.000000)">
                    <path d="M102.920281,42.5578164 C103.155266,42.5431299 103.386579,42.5431299 103.613609,42.511309 C104.699191,42.3601597 105.718684,42.0254284 106.587639,41.3351597 C107.766848,40.398891 107.872713,38.9614433 106.788355,38.0429209 C105.630564,37.0625925 104.274504,36.5026672 102.740982,36.514906 C101.940564,36.5210254 101.140758,36.6421896 100.341564,36.7223537 C99.5680716,36.8000701 99.3569522,36.9952791 99.3147284,37.755309 C99.2559821,38.8041746 99.2559821,39.8561 99.1886687,40.9037418 C99.1568478,41.4006373 99.380206,41.6717269 99.789594,41.8559209 C100.787057,42.305697 101.831639,42.5480254 102.920281,42.5578164 M99.5503254,34.4257418 C99.6047881,35.325294 99.7247284,35.4342194 100.597355,35.3087716 C100.727699,35.2904134 100.856818,35.2641 100.987161,35.2524731 C103.433087,35.0407418 105.802519,34.5120254 108.053848,33.5133388 C109.895176,32.6970104 111.542519,31.6285627 112.644624,29.8771896 C113.235758,28.9378612 113.551519,27.893891 113.508684,26.8009657 C113.458504,25.5379209 112.650131,24.6934433 111.607385,24.1102642 C108.596639,22.4274284 105.419445,22.2218164 102.156579,23.2076522 C100.950445,23.5723687 100.665893,24.0827269 100.608982,25.3469955 C100.577161,26.0501149 100.479251,26.7501746 100.395415,27.4496224 C100.117594,29.7756075 99.8324299,32.1003687 99.5503254,34.4257418 M105.73949,35.9139806 C106.408952,36.3374433 107.033131,36.6978761 107.619982,37.1103239 C108.48343,37.7179806 109.095982,38.4951448 109.154728,39.6119358 C109.222654,40.9080254 108.509743,41.7849358 107.563072,42.4941746 C106.011803,43.6574731 104.226161,44.0827716 102.320579,43.863697 C101.336579,43.7504881 100.358087,43.5081597 99.4046836,43.2297269 C98.1226687,42.8552194 97.7334746,42.1906522 97.7769224,40.8358164 C97.8362806,38.9999955 97.9354149,37.1641746 98.0749373,35.3326373 C98.1820269,33.9282343 98.3839672,32.5323985 98.5326687,31.1310552 C98.7107433,29.452503 98.8692358,27.771503 99.052206,26.0935627 C99.1360418,25.3292493 99.256594,24.5692194 99.3636836,23.8073537 C99.4891313,22.9206522 100.058848,22.3974433 100.818878,22.0241597 C101.915475,21.4856522 103.102639,21.3045179 104.294699,21.2384284 C106.670251,21.1068612 109.017654,21.3112493 111.239609,22.2401746 C112.976907,22.9659358 114.369072,24.0968015 114.794982,26.029309 C115.255161,28.1215328 114.643221,29.9897866 113.292669,31.6108164 C111.88643,33.2991597 109.9784,34.2464433 107.993266,35.0572642 C107.268116,35.3534433 106.528893,35.6153537 105.73949,35.9139806" id="Fill-1" fill="#758289"></path>
                    <path d="M134.401121,40.3376358 C134.44824,41.503994 134.521673,41.5927254 135.642748,41.9237851 C136.692225,42.2346507 139.170584,42.2438299 140.259225,42.0620836 C141.359494,41.8778896 142.372867,41.4795164 143.223464,40.7421284 C144.488345,39.6455313 144.395942,38.1774866 143.015404,37.2363224 C142.13421,36.635397 139.741524,36.3178 138.687151,36.2933224 C137.585046,36.2676209 136.474987,36.4401881 135.374106,36.5699194 C134.553494,36.6672179 134.376643,36.8973075 134.374807,37.7283224 C134.37236,38.5978896 134.39133,39.4680687 134.401121,40.3376358 M134.447628,34.3075761 C134.544927,35.221203 134.668539,35.3166657 135.577882,35.1318597 C135.690479,35.1092179 138.047673,34.6588299 140.245763,33.5487701 C142.043031,32.6406507 143.6353,31.4908149 144.648673,29.686203 C145.192076,28.7181134 145.455822,27.6606806 145.358524,26.5714269 C145.258166,25.4497403 144.47427,24.6285164 143.539225,24.089397 C141.187539,22.7345612 138.929479,21.8980388 136.28039,23.0497104 C135.314748,23.4688896 135.036315,24.1579343 135.04121,25.1872179 C135.04427,25.9068597 134.974509,26.6271134 134.926166,27.3461433 C134.769509,29.6666209 134.607957,31.9870985 134.447628,34.3075761 M140.15336,35.2052925 C140.15336,35.2052925 141.819061,35.3943821 142.171539,35.5112627 C142.786539,35.7156507 143.421733,35.8539493 143.98533,36.1856209 C144.313942,36.379606 144.629703,36.6090836 144.915479,36.861203 C146.103255,37.9100687 146.081837,39.730591 145.091718,40.9740537 C143.795628,42.6024269 142.037524,43.3232925 140.003434,43.4677104 C138.644315,43.5637851 135.909554,43.4444567 134.615912,43.0815761 C133.346748,42.7254269 133.016912,42.0547403 133.002225,40.8669642 C132.95939,37.4896657 132.99121,34.114203 133.289837,30.7436358 C133.48627,28.5259642 133.585404,26.2985015 133.683927,24.0728746 C133.729822,23.0460388 134.194897,22.3484269 135.070584,21.8668299 C136.213076,21.2389791 137.892852,21.2255164 139.171807,21.2481582 C140.477076,21.2708 141.680151,21.6960985 142.895464,22.1385313 C144.664584,22.7822925 146.103255,23.8495164 146.611778,25.7655015 C147.161912,27.8363075 146.639315,29.7278149 145.363419,31.4088149 C144.604613,32.4081134 143.630404,33.212203 142.568688,33.8724866 C142.146449,34.1356209 141.710748,34.3828448 141.258524,34.5915164 C141.063927,34.6814716 140.15336,35.2052925 140.15336,35.2052925" id="Fill-3" fill="#758289"></path>
                    <path d="M126.544297,35.6803418 C126.501461,35.3407149 126.495342,34.991297 126.409058,34.663297 C125.874222,32.6292075 123.068476,30.9017 121.003178,31.3165955 C119.860685,31.5460731 118.748178,31.8997746 118.005894,32.8378791 C117.072073,34.0164761 116.644327,35.3780433 116.817506,36.9201328 C117.094103,39.378909 119.485566,41.202491 121.94067,40.8200284 C124.990581,40.3451627 126.509416,38.1764463 126.544297,35.6803418 M126.938999,39.2822224 C126.205282,39.952909 125.56764,40.6743866 124.800879,41.2104463 C122.610745,42.7427448 118.697999,42.3462075 116.909909,40.4761179 C116.019536,39.5447448 115.622387,38.3961328 115.529984,37.1404313 C115.414939,35.5720284 115.491431,34.0268791 116.32367,32.6200284 C117.80273,30.1208642 120.849581,29.0615955 123.58067,30.0419239 C124.69379,30.4415209 125.623939,31.0534612 126.381521,31.9499537 C126.574282,32.1775955 126.782342,32.346491 127.139103,32.2706104 C127.468327,32.2008493 127.717387,32.4027896 127.804282,32.7234463 C127.880163,33.0055507 127.913819,33.3011179 127.939521,33.5930134 C128.11576,35.5695806 128.280984,37.5473716 128.457834,39.5233269 C128.539834,40.4381776 128.659163,41.3493567 128.717909,42.2654313 C128.738715,42.5805806 128.606536,42.9036851 128.332999,42.9171478 C127.624984,42.9520284 127.281685,41.6712373 127.162357,41.1676104 C127.016103,40.5507746 127.006312,39.9021179 126.938999,39.2822224" id="Fill-5" fill="#758289"></path>
                    <g id="Group-9" transform="translate(148.089552, 20.189746)">
                        <mask id="mask-2" fill="white">
                            <use xlink:href="#path-1"></use>
                        </mask>
                        <g id="Clip-8"></g>
                        <path d="M7.36537463,9.58304627 C8.19516567,9.10206119 8.63453881,8.39098657 9.13877761,7.73253881 C10.9054493,5.42674776 12.6800761,3.12585224 14.4761209,0.842702985 C14.6278821,0.649941791 14.9809716,0.474926866 15.2104493,0.507359701 C15.9466134,0.612001493 16.1020463,1.20007612 15.5959716,1.79059851 C14.5581209,2.9991806 13.4902851,4.18389701 12.4928224,5.42491194 C11.7854194,6.30549403 11.1997925,7.28215075 10.5125836,8.17925522 C9.91655373,8.95703134 9.24464328,9.67606119 8.62658358,10.4373149 C8.48400149,10.6129418 8.36038955,10.846703 8.33468806,11.0657776 C7.85003134,15.1914791 7.78761343,19.3385985 7.70867313,23.485106 C7.69827015,24.0315687 7.5973,24.1288672 7.02758358,24.1184642 C6.43216567,24.1080612 6.17515075,23.894494 6.19962836,23.4257478 C6.33976269,20.7252552 6.49580746,18.0259866 6.61574776,15.3242701 C6.67265821,14.0465388 6.67938955,12.7657478 6.66531493,11.4861806 C6.66225522,11.2034642 6.53803134,10.8748522 6.3642403,10.6484343 C4.49537463,8.21964328 2.60386716,5.80798657 0.722762687,3.38837463 C0.563046269,3.18215075 0.405165672,2.96613582 0.295628358,2.73176269 C0.161613433,2.44537463 0.167120896,2.15164328 0.462076119,1.9423597 C0.741732836,1.7434791 1.02934478,1.75021045 1.26371791,1.99743433 C1.61313582,2.36521045 1.95215075,2.74461343 2.2673,3.14115075 C3.96910597,5.28171791 5.66234478,7.42901642 7.36537463,9.58304627" id="Fill-7" fill="#758289" mask="url(#mask-2)"></path>
                    </g>
                    <path d="M70.2599254,52.242506 C60.3446567,53.0863716 50.2519254,51.9163418 40.1634776,51.6746254 C32.8495672,51.4989985 31.4616866,52.6494463 29.2935821,60.4627 C28.3530299,63.8522373 26.9865672,65.1697448 23.6961642,63.5780881 C10.1221045,57.0101328 2.87061194,31.5332224 10.9592388,18.2486104 C15.1222687,11.4107896 21.5231642,7.95455075 28.464403,6.05447612 C43.7629104,1.86513284 56.3223731,0.0739835821 71.811806,4.35634179 C86.295209,8.3608791 91.5266866,18.9223567 91.327194,34.5262224 C91.163194,47.4069537 80.6727015,51.3564164 70.2599254,52.242506" id="Fill-10" fill="#E9666A"></path>
                    <path d="M34.3484537,43.8029313 C35.2834985,43.5244985 35.8146627,42.8483045 35.8256776,41.7872 C35.8342448,40.9396627 35.6610657,40.0884537 35.6830955,39.2427522 C35.7234836,37.7092299 35.8415881,36.1781552 35.9419463,34.6470806 C36.0392448,33.1508866 36.1377672,31.6546925 36.2681104,30.1615582 C36.4431254,28.1513343 36.6560806,26.1441701 36.8384388,24.1339463 C36.9559313,22.8439761 37.0483343,21.5515582 37.1517522,20.2603642 C37.6627224,20.3099313 37.9656328,20.6342597 37.9521701,21.3202448 C37.9289164,22.4682448 37.8622149,23.6168567 37.7716478,24.762409 C37.5586925,27.457394 37.3328866,30.1517672 37.0887224,32.8443045 C36.9461403,34.4120955 36.7423642,35.9737672 36.5948866,37.5403343 C36.4682149,38.8878269 36.405797,40.2285881 36.6469015,41.5852597 C36.7662299,42.2541104 36.6334388,42.9774239 36.5551104,43.6689164 C36.4951403,44.2006925 36.1512299,44.5599015 35.6041552,44.5935582 C35.0472896,44.6284388 34.5993493,44.3977373 34.3484537,43.8029313" id="Fill-12" fill="#E6E86D"></path>
                    <path d="M24.9289791,20.094406 C25.8683075,20.4401522 25.8028299,21.2368985 25.668203,22.1493015 C25.3701881,24.1784955 24.9975164,26.1966746 24.7227552,28.2283164 C24.3568149,30.9343164 24.2656358,33.6556149 24.4577851,36.3830328 C24.4675761,36.5213313 24.4645164,36.6602418 24.4675761,36.7985403 C24.4100537,36.8199582 24.3525313,36.8413761 24.2956209,36.8621821 C24.119994,36.4993015 23.8660388,36.1535552 23.782203,35.7710925 C23.3477254,33.7926896 23.4285015,31.7800179 23.5729194,29.7863164 C23.7308,27.6114806 24.0153522,25.4439881 24.3017403,23.2801672 C24.4418746,22.2208985 24.7111284,21.1787642 24.9289791,20.094406" id="Fill-14" fill="#E6E86D"></path>
                    <path d="M24.3867388,40.9725851 C25.0011269,40.9597343 25.6393806,40.9383164 26.2770224,40.9340328 C27.4960075,40.9260776 28.5277388,40.3943015 29.3709925,39.6073463 C30.3262313,38.7151373 31.1468433,37.6778985 32.0243657,36.7018537 C32.1192164,36.5966 32.2012164,36.4803313 32.3517537,36.2900179 C32.3242164,36.627197 32.2489478,36.8707493 32.2954552,37.0873761 C32.5861269,38.4360925 31.8689328,39.2952567 30.9620373,40.142794 C29.2302463,41.7619881 27.2965149,42.203197 25.081291,41.3532119 C24.815097,41.2510179 24.5764403,41.0778388 24.3867388,40.9725851" id="Fill-16" fill="#E6E86D"></path>
                    <path d="M33.8093955,35.0336433 C33.0365149,36.1167776 32.3107537,37.2127627 31.5029925,38.244494 C30.6193507,39.3735239 29.6482015,40.500106 28.2425746,40.9333597 C25.1981716,41.8714642 22.5686642,40.6763448 21.9077687,37.4881358 C21.576097,35.8879119 21.4983806,34.2099716 21.5087836,32.5687478 C21.5326493,28.8946582 21.9126642,25.2432104 22.539903,21.6211358 C22.6280224,21.1138373 22.7608134,20.6016433 22.9652015,20.1322851 C23.1010522,19.8183597 23.4584254,19.3153448 23.616306,19.3502254 C24.0630224,19.4493597 24.5574701,19.6971955 24.8518134,20.041106 C25.3040373,20.5704343 25.0500821,21.2521358 24.9215746,21.8610164 C24.0379328,26.0485239 23.5899925,30.2764194 23.7068731,34.5575537 C23.7240075,35.1688821 23.7674552,35.7857179 23.8763806,36.3854194 C24.0715896,37.4636582 24.6872015,38.2818224 25.7256642,38.6318522 C26.8632612,39.0155388 28.0008582,38.7579119 28.8190224,37.9207776 C30.637709,36.0592552 32.1816343,33.9725388 33.3608433,31.6379866 C34.0223507,30.3284343 34.2597836,28.9081209 34.4158284,27.4670015 C34.5773806,25.9769269 34.7670821,24.4893 34.9225149,22.9986134 C34.9843209,22.408703 34.9714701,21.8120612 35.0204254,21.2209269 C35.0638731,20.6873149 35.2633657,20.2197925 35.7168134,19.8911806 C36.3844403,19.4077478 37.1848582,19.702091 37.217291,20.5171955 C37.2619627,21.6254194 37.2454403,22.7452701 37.135903,23.8485985 C36.8746045,26.4652552 36.4719478,29.0623299 36.4278881,31.7059119 C36.3985149,33.457897 36.1011119,35.2062104 35.9126343,36.9551358 C35.7547537,38.4201209 35.8073806,39.8734791 36.0013657,41.3354045 C36.0821418,41.9436731 35.9891269,42.5917179 35.8789776,43.2042701 C35.792694,43.6852552 35.4622463,44.0303896 34.9121119,44.0463 C34.3558582,44.0615985 33.8785448,43.8370164 33.7243358,43.3119716 C33.5554403,42.7379716 33.4691567,42.1162403 33.4801716,41.5177627 C33.5052612,40.1837328 33.6154104,38.8515388 33.6870075,37.5187328 C33.7304552,36.7042403 33.7671716,35.8897478 33.8093955,35.0336433" id="Fill-18" fill="#FFFFFF"></path>
                    <path d="M47.268594,28.107397 C47.3524299,26.9422627 47.4154597,25.8554567 47.5109224,24.7723224 C47.6596239,23.094994 47.8340269,21.4201134 47.9906836,19.743397 C48.1338776,18.2110985 48.2782955,16.6788 48.3976239,15.1446657 C48.4202657,14.8558299 48.5469373,14.7114119 48.7904896,14.6545015 C49.3534746,14.5229343 49.9170716,14.3362925 50.4880119,14.3056955 C51.9376985,14.229203 53.3922806,14.1759642 54.843191,14.209009 C55.9862955,14.2347104 57.1251164,14.4488896 58.2694448,14.4917254 C59.046609,14.5204866 59.8341761,14.4299194 60.6095045,14.331397 C61.0623403,14.2738746 61.455206,14.0437851 61.5427134,13.5071134 C61.5843254,13.4740687 61.6265493,13.4404119 61.6687731,13.4073672 C61.8052358,13.5921731 61.9447582,13.7751433 62.0775493,13.962397 C62.3627134,14.3656657 62.243997,14.8160537 61.7801463,14.9892328 C61.5543403,15.0730687 61.300997,15.0981582 61.0568328,15.1165164 C59.4094896,15.2389045 57.7829522,14.9592478 56.1460119,14.8674567 C54.7146836,14.7866806 53.2711164,14.8478746 51.8367284,14.9225313 C51.1507433,14.9586358 50.4702657,15.1526209 49.7952955,15.3111134 C49.3020716,15.427994 49.0707582,15.7131582 49.0328179,16.2902179 C48.8994149,18.3469493 48.6791164,20.3981731 48.4979821,22.4518448 C48.3437731,24.201994 48.1822209,25.9521433 48.057997,27.7041284 C48.0139373,28.3240239 47.6014896,27.9978597 47.268594,28.107397" id="Fill-20" fill="#E6E86D"></path>
                    <path d="M44.4745358,43.2984478 C45.1525657,43.3339403 45.3465507,42.8884478 45.4389537,42.4056269 C45.7473716,40.7986716 46.0753716,39.1935522 46.3060731,37.5743582 C46.6212224,35.3634179 46.8543716,33.1402388 47.1285209,30.8705522 C47.763103,30.8264925 48.4239985,30.770194 49.0861179,30.7377612 C50.407909,30.6716716 51.7309239,30.6141493 53.0533269,30.5609104 C53.995103,30.5229701 54.8573269,30.3045075 55.5304612,29.581194 C55.726894,29.3700746 56.2892672,29.4361642 56.5211925,29.6772687 C56.8057448,29.9734478 56.5640284,30.1821194 56.3767746,30.3779403 C55.9263866,30.8509701 55.3597299,31.0939104 54.7135209,31.1336866 C53.2185507,31.2260896 51.7229687,31.3111493 50.2273866,31.3888657 C49.5444612,31.4243582 48.8609239,31.4463881 48.1767746,31.4543433 C47.8824313,31.457403 47.8071627,31.5687761 47.7698343,31.8618955 C47.3017,35.5451642 46.8139836,39.2259851 46.3293269,42.9074179 C46.3158642,43.0071642 46.2828194,43.1050746 46.2583418,43.203597 C46.1824612,43.5083433 46.1708343,43.8638806 45.7847,43.9630149 C45.3489985,44.0756119 44.9836701,43.9269104 44.687491,43.5995224 C44.6220134,43.5267015 44.5730582,43.4385821 44.4745358,43.2984478" id="Fill-22" fill="#E6E86D"></path>
                    <path d="M47.2227597,28.8834597 C48.3719836,28.8039075 49.4416552,28.685191 50.5131627,28.665609 C52.0509687,28.6380716 53.5906104,28.6619373 55.1278045,28.7151761 C55.398894,28.7243552 55.6608045,28.983206 55.9269985,29.1270119 C55.7617746,29.3815791 55.6393866,29.6826537 55.4227597,29.8821463 C54.9142373,30.3490567 54.2478343,30.4304448 53.5942821,30.4653254 C51.5314313,30.5760866 49.4673567,30.664206 47.403894,30.7615045 C47.3316851,30.7651761 47.2600881,30.7706836 47.1285209,30.7792507 C47.0520284,31.4921612 46.9896104,32.2081313 46.8972075,32.9204299 C46.4957746,36.0125642 46.0863866,39.1034746 45.6776104,42.194997 C45.6647597,42.2947433 45.6335507,42.3920418 45.6066254,42.4899522 C45.4420134,43.0939373 45.2884164,43.2340716 44.8184463,43.2114299 C44.2768791,43.1857284 43.7922224,42.8375343 43.7738642,42.349206 C43.7475507,41.6699522 43.7597896,40.9802955 43.8509687,40.3077731 C44.1416403,38.167206 44.5137,36.0376537 44.7829537,33.8946388 C45.016103,32.0367881 45.1635806,30.1679224 45.3281925,28.3021164 C45.5711328,25.5398179 45.8220284,22.7781313 46.0178493,20.0127731 C46.1169836,18.609594 46.0741478,17.1972358 46.1518642,15.7922209 C46.1977597,14.9550866 46.3470731,14.1228478 46.4596701,13.289997 C46.5220881,12.8224746 46.8243866,12.5740269 47.2723269,12.5226239 C47.906297,12.4504149 48.5433269,12.3751463 49.1809687,12.3598478 C51.9597896,12.2925343 54.7386104,12.2313403 57.5180433,12.203191 C58.3123418,12.1952358 59.1121478,12.2735642 59.9009388,12.3763701 C60.4057896,12.4424597 60.8733119,12.664594 61.2062075,13.0905045 C61.7251328,13.7538478 61.5739836,14.2556388 60.7570433,14.3174448 C59.7167448,14.3957731 58.6525806,14.4704299 57.6245209,14.3413104 C55.1571776,14.0310567 52.6984015,13.9411015 50.2384015,14.305206 C49.6790881,14.3884299 49.1430284,14.6472806 48.6075806,14.8535045 C48.5078343,14.8920567 48.4087,15.0640119 48.3976851,15.1821164 C48.2459239,16.8306836 48.1155806,18.4816985 47.9668791,20.1308776 C47.813894,21.8222806 47.6358194,23.5124597 47.4889537,25.2044746 C47.3849239,26.4032657 47.3139388,27.6057284 47.2227597,28.8834597" id="Fill-24" fill="#FFFFFF"></path>
                    <path d="M62.7850746,34.8403313 C61.3133582,32.3576896 61.859209,28.6762567 64.1925373,26.4224806 C66.0938358,24.5854358 69.9723134,24.511391 72.1532687,26.1948388 C69.3340597,25.1753463 66.7834925,25.6134955 64.7726567,27.5570179 C62.7630448,29.4999284 62.2343284,32.076197 62.7850746,34.8403313" id="Fill-26" fill="#E6E86D"></path>
                    <path d="M75.3695657,37.1819209 C75.3952672,37.7773388 75.4289239,38.2301746 75.4240284,38.6823985 C75.4228045,38.7931597 75.314491,38.923503 75.2227,39.0103985 C73.9896403,40.1718612 72.5332224,40.8896672 70.8491627,41.0701896 C69.0151776,41.2666224 67.1977149,41.1509657 65.4494015,40.5059806 C64.8968194,40.3022045 64.377894,40.0078612 63.8608045,39.723309 C68.1223567,40.9820701 72.0785507,40.8774284 75.3695657,37.1819209" id="Fill-28" fill="#E6E86D"></path>
                    <path d="M78.0423985,27.5722552 C78.6635179,27.9333 78.7296075,28.4326433 78.7418463,28.9203597 C78.785906,30.6405239 78.7681597,32.3625239 78.8360851,34.0814642 C78.9235925,36.2911806 79.0716821,38.4978373 79.1916224,40.7057179 C79.2167119,41.165897 79.2797418,41.6309716 79.2350701,42.0844194 C79.2081448,42.3573448 79.0686224,42.7294045 78.8630104,42.8401657 C78.6977866,42.9282851 78.3471448,42.7110463 78.099309,42.5886582 C77.9597866,42.5201209 77.8606522,42.3689716 77.7156224,42.2276134 C78.6274134,41.8800313 78.611503,41.1089866 78.6011,40.3997478 C78.5833537,39.156897 78.498906,37.9146582 78.4242493,36.6730313 C78.323891,35.0030463 78.1794731,33.334897 78.1042045,31.6636881 C78.0448463,30.3351657 78.0613687,29.0041955 78.0423985,27.5722552" id="Fill-30" fill="#E6E86D"></path>
                    <path d="M75.8774761,31.6843104 C75.9784463,30.7486537 75.8468791,29.9922955 75.5360134,29.2536836 C74.4681776,26.717803 70.6961776,24.185594 67.2332075,25.1891761 C66.1427299,25.5055493 65.0314463,25.8525194 64.2163418,26.6816985 C62.8578343,28.0634597 62.081894,29.7530269 61.969909,31.6965493 C61.8995358,32.9100269 62.0017299,34.1192209 62.5763418,35.2347881 C63.1393269,36.3289373 64.081103,37.0461313 65.0810134,37.6837731 C66.0509388,38.3018328 67.1181627,38.7259075 68.283297,38.6732806 C69.042103,38.6384 69.8033567,38.4744 70.5450284,38.2914299 C71.7468791,37.9958627 72.8979388,37.5650567 73.7418045,36.5884 C74.9956701,35.1374896 75.9239836,33.543997 75.8774761,31.6843104 M76.1907896,36.6385791 C75.7012373,37.1440418 75.2588045,37.6072806 74.8096403,38.0637881 C72.6978343,40.2104746 70.0713866,40.7012507 67.2136254,40.3793701 C65.4904015,40.1853851 63.8956851,39.6181164 62.5506403,38.484191 C61.1272672,37.2841761 60.3996701,35.6919075 60.1916104,33.8842358 C59.9554015,31.8348478 60.0973716,29.792803 60.8616851,27.8535642 C62.1357448,24.6200716 65.700909,22.4556388 69.1528642,22.7169373 C71.0559985,22.8607433 72.7890134,23.4739075 74.3219239,24.5741761 C74.946103,25.0227284 75.4117896,25.692191 75.9515209,26.2594597 C76.2458642,26.5691015 76.462491,26.9105642 77.0426104,26.7814448 C77.5921328,26.6590567 78.0253866,27.2544746 78.0443567,28.0163403 C78.072506,29.1392507 78.0541478,30.2627731 78.0963716,31.3850716 C78.1551179,32.9504149 78.2548642,34.5145343 78.3301328,36.0798776 C78.4133567,37.8141164 78.5082075,39.5489672 78.5510433,41.2844299 C78.5583866,41.5818328 78.3338045,41.8847433 78.2163119,42.184594 C77.907894,42.0536388 77.5364463,41.9924448 77.303297,41.7788776 C76.6448493,41.1755045 76.4416851,40.3536687 76.3902821,39.4883851 C76.339491,38.6298328 76.2880881,37.7706687 76.2354612,36.9121164 C76.2311776,36.8423552 76.2134313,36.7738179 76.1907896,36.6385791" id="Fill-32" fill="#FFFFFF"></path>
                    <g id="Group-36" transform="translate(0.000000, 11.010642)">
                        <mask id="mask-4" fill="white">
                            <use xlink:href="#path-3"></use>
                        </mask>
                        <g id="Clip-35"></g>
                        <path d="M7.09569254,3.74825672 C6.8203194,4.32103284 6.25366269,4.64903284 5.54197612,4.64903284 C5.20173731,4.64903284 4.86088657,4.57131642 4.55675224,4.42445075 C3.58988657,3.9575403 3.20069254,2.97109254 3.63088657,2.07827164 C3.92033433,1.47795821 4.47475224,1.13343582 5.15278209,1.13343582 C5.4550806,1.13343582 5.76594627,1.20625672 6.05111045,1.34394328 C7.16912537,1.88306269 7.46040896,2.99006269 7.09569254,3.74825672 M6.37054328,0.681823881 C5.99542388,0.501301493 5.5811403,0.405226866 5.17236418,0.405226866 C4.21528955,0.405226866 3.37264776,0.920480597 2.97243881,1.7496597 C2.67503582,2.36710746 2.6793194,3.04207761 2.98222985,3.66625672 L0.981797015,2.70306269 C0.842886567,2.63574925 0.699692537,2.60025672 0.568737313,2.60025672 C0.330080597,2.60025672 0.142826866,2.71591343 0.0412447761,2.92519701 C-0.00526268657,3.02188358 -0.0132179104,3.13203284 0.020438806,3.2287194 C0.0516477612,3.31928657 0.117125373,3.3927194 0.204632836,3.43494328 C0.333752239,3.49552537 0.497752239,3.47410746 0.599334328,3.38231642 C0.600558209,3.38109254 0.648901493,3.35661493 0.698468657,3.38170448 L5.98379701,5.92982388 C6.04315522,5.95797313 6.04499104,6.00264478 6.04499104,6.00509254 C6.03764776,6.14706269 6.1202597,6.28413731 6.25060299,6.34655522 C6.30078209,6.37103284 6.35340896,6.38327164 6.4072597,6.38327164 C6.55045373,6.38327164 6.6850806,6.2945403 6.74994627,6.15807761 C6.90843881,5.83007761 6.74321493,5.47882388 6.33994627,5.28422687 L6.2432597,5.2377194 C6.92190149,5.12206269 7.44511045,4.71695821 7.76270746,4.05912239 C8.05949851,3.44228657 8.06990149,2.75201791 7.79146866,2.1156 C7.52343881,1.50304776 7.0192,0.993913433 6.37054328,0.681823881" id="Fill-34" fill="#758289" mask="url(#mask-4)"></path>
                    </g>
                    <path d="M9.5919806,7.17671343 L7.30944328,9.8472209 C6.71402537,9.17286269 6.67180149,8.12032537 7.2231597,7.47595224 C7.54014478,7.1032806 8.02663731,6.89032537 8.55657761,6.89032537 C8.92129403,6.89032537 9.28662239,6.99129552 9.5919806,7.17671343 M10.8990851,8.26168358 C10.8274881,8.34490746 10.7932194,8.44465373 10.8005627,8.55174328 C10.8391149,9.04802687 10.6457418,9.54859403 10.2253388,10.040594 C9.91141343,10.4089821 9.44878657,10.6115343 8.92251791,10.6115343 C8.55596567,10.6115343 8.18390597,10.5093403 7.86936866,10.3239224 L10.3881149,7.37620597 C10.4548164,7.29787761 10.4884731,7.19201194 10.479294,7.08553433 C10.4713388,6.98701194 10.4260552,6.8982806 10.3526224,6.83647463 C9.83614478,6.39465373 9.18565224,6.15171343 8.52169701,6.15171343 C7.78920448,6.15171343 7.12953284,6.45217612 6.66384627,6.99741493 C6.21284627,7.52429552 6.02069701,8.20293731 6.1222791,8.90850448 C6.21774179,9.57123582 6.57144328,10.2070418 7.09159254,10.6519224 C7.62642836,11.1084299 8.2861,11.3605493 8.95066716,11.3605493 C9.66969701,11.3605493 10.3214134,11.0613104 10.7846522,10.5197433 C11.3672194,9.83804179 11.6126075,9.16368358 11.535503,8.45995224 C11.5293836,8.36387761 11.4828761,8.27637015 11.4014881,8.20783284 C11.2625776,8.09156418 11.0214731,8.12032537 10.8990851,8.26168358" id="Fill-37" fill="#758289"></path>
                    <path d="M14.6624567,5.90075672 C14.5431284,5.90075672 14.4286955,5.95950299 14.3473075,6.06414478 C14.2720388,6.17062239 14.1221134,6.36583134 13.9697403,6.48760746 C13.8136955,6.6112194 13.6637701,6.67057761 13.5101731,6.67057761 C13.1595313,6.67057761 12.8566209,6.34869701 12.6075612,6.0341597 L10.9706209,3.95539851 L11.8016358,3.30062239 C11.9631881,3.17272687 11.9895015,2.94569701 11.8622179,2.78414478 C11.7435015,2.63299552 11.5189194,2.5871 11.3775612,2.69786119 L10.5153373,3.37833881 L10.0459791,2.78414478 C9.87769552,2.56935373 9.66106866,2.44635373 9.45300896,2.44635373 C9.32817313,2.44635373 9.2106806,2.48918955 9.10420299,2.57363731 C9.02036716,2.63911493 8.9646806,2.73518955 8.95244179,2.8361597 C8.94081493,2.93162239 8.9677403,3.02524925 9.02771045,3.10174179 C9.0968597,3.18863731 9.20456119,3.24065224 9.31471045,3.24065224 C9.3459194,3.24065224 9.37651642,3.23636866 9.41629254,3.22780149 C9.43587463,3.22780149 9.46524776,3.23514478 9.49339701,3.27124925 L9.93766567,3.83362239 L9.70635224,4.01720448 C9.54663582,4.14142836 9.56499403,4.36478657 9.67636716,4.50920448 C9.80365075,4.66830896 10.0306806,4.69951791 10.1934567,4.56856269 L10.3935612,4.41068209 L12.0317254,6.48944328 C12.5292328,7.12035373 13.0114418,7.42754776 13.5046657,7.42754776 C13.8094119,7.42754776 14.1190537,7.30577164 14.4244119,7.06466716 C14.6269642,6.90433881 14.8068746,6.71096567 14.9592478,6.48699552 C15.1079493,6.26669701 15.0063672,6.0721 14.8748,5.97174179 C14.813606,5.92523433 14.7401731,5.90075672 14.6624567,5.90075672" id="Fill-39" fill="#758289"></path>
                    <path d="M16.1118985,2.51268806 C16.4680478,2.3083 16.8101224,2.16938955 17.316809,2.15592687 L17.6399134,2.71646418 C18.0284955,3.39143433 17.5756597,4.20898657 16.9331224,4.57982239 C16.6840627,4.72240448 16.4117493,4.80134478 16.1651373,4.80134478 C15.9154657,4.80134478 15.5709433,4.7211806 15.3506448,4.33810597 C15.061197,3.83570299 15.1089284,3.09280746 16.1118985,2.51268806 M19.2872567,3.57807612 C19.222391,3.46486716 19.1018388,3.39449403 18.9733313,3.39449403 C18.9592567,3.39449403 18.9451821,3.39510597 18.9298836,3.39755373 C18.915197,3.39755373 18.8784806,3.39204627 18.8497194,3.34186716 L17.4789731,0.965702985 C17.337003,0.716031343 17.1785104,0.46268806 16.9790179,0.304195522 C16.4282716,-0.140073134 15.6419284,-0.0954014925 14.7350328,0.425359701 C14.3225851,0.663404478 13.9352269,0.985285075 13.6720925,1.30900149 C13.5705104,1.43444925 13.5521522,1.60456866 13.626809,1.7343 C13.7259433,1.90503134 13.9413463,1.96561343 14.1151373,1.86403134 C14.1543015,1.84138955 14.2044806,1.80038955 14.2375254,1.7691806 C14.5508388,1.45219552 14.7766448,1.25270299 15.1383015,1.04280746 C15.7459582,0.694613433 16.2220478,0.631583582 16.5133313,0.878195522 C16.5690179,0.922867164 16.7287343,1.13827015 16.8517343,1.34755373 C16.8792716,1.39773284 16.9110925,1.45280746 16.9392418,1.50176269 C16.9429134,1.50849403 16.947197,1.51583731 16.9514806,1.52256866 C16.5733015,1.52746418 16.1235254,1.6553597 15.7716597,1.85913582 C15.2031672,2.18713582 14.794391,2.60998657 14.589391,3.08179254 C14.3611373,3.60806119 14.405809,4.17227015 14.7172866,4.71383731 C15.0232567,5.24622537 15.5305552,5.53873284 16.1443313,5.53873284 C16.5218985,5.53873284 16.9141522,5.42797164 17.2770328,5.21868806 C17.7329284,4.95616567 18.2096299,4.39256866 18.2751075,3.8161209 C18.3075403,3.8663 18.3393612,3.9103597 18.371794,3.94401642 C18.618406,4.19491194 18.9237642,4.27201642 19.1587493,4.13432985 C19.3349881,4.0333597 19.3961821,3.76900149 19.2872567,3.57807612" id="Fill-41" fill="#758289"></path>
                </g>
            </g>
        </g>
    </g>
</svg>