<?xml version="1.0" encoding="UTF-8" standalone="no"?>
<svg width="323px" height="70px" viewBox="0 0 323 70" version="1.1" xmlns="http://www.w3.org/2000/svg" xmlns:xlink="http://www.w3.org/1999/xlink">
    <!-- Generator: Sketch 3.8.1 (29687) - http://www.bohemiancoding.com/sketch -->
    <title>t_eventos</title>
    <desc>Created with Sketch.</desc>
    <defs></defs>
    <g id="home-logada-tema1" stroke="none" stroke-width="1" fill="none" fill-rule="evenodd">
        <g id="home-logada-1o-acesso" transform="translate(-418.000000, -2501.000000)">
            <g id="eventos" transform="translate(0.000000, 2457.000000)">
                <g id="t_eventos" transform="translate(418.000000, 40.000000)">
                    <g id="Page-1" transform="translate(99.017296, 32.500000) rotate(-1.000000) translate(-99.017296, -32.500000) translate(0.517296, 2.000000)" fill="#E9666A">
                        <path d="M174.661482,43.8731531 C176.988211,54.7762664 179.618807,55.7535237 189.435681,58.7299297 C190.199742,58.9619109 190.085572,60.1253403 189.288138,60.1664509 C189.279355,60.1670382 189.270573,60.1670382 189.261791,60.1676255 C179.280981,60.5799059 169.490454,59.8117253 161.325242,53.2287467 C158.22684,50.9717758 156.777758,49.1053555 154.946352,44.7623163 C154.177022,42.9375938 153.099724,43.1026234 151.782962,43.0920521 C136.759931,42.9722441 37.3651855,41.2074256 22.3439112,40.9783809 C18.4738371,40.9196515 14.5364318,40.6271791 10.7647196,39.8143642 C4.23770193,38.4083823 -0.0498250093,33.3394477 0.000526938993,26.6495816 C0.0725419348,17.0238328 0.319617774,29.4251331 0.608848733,9.67149905 C0.669153973,5.54106027 3.24939858,2.9980772 7.00354616,1.8804567 C9.4959676,1.13870436 12.1628644,0.532029645 14.7349122,0.590759046 C31.7919274,0.981896858 133.219487,3.18013834 150.267134,3.8608121 C161.0647,4.29129861 171.847042,5.11820858 182.633484,5.80886634 C184.406926,5.92280138 186.174514,6.13070346 187.918682,6.47544504 C193.640654,7.60657331 195.047581,9.09360175 195.829207,14.8297024 C195.98846,15.999592 196.063988,17.1841641 196.066915,18.3640377 C196.111412,36.0733013 196.141272,21.5160447 196.082723,29.2101835 C196.061646,31.9440372 195.287631,34.834111 194.194525,37.3618244 C192.327405,41.6778481 188.692111,43.7973922 183.96781,43.8655183 C181.148101,43.9066289 178.327807,43.8731531 174.661482,43.8731531" id="Fill-1"></path>
                    </g>
                    <g id="Page-1" transform="translate(263.000000, 53.785583) scale(-1, 1) translate(-263.000000, -53.785583) translate(203.000000, 33.285583)">
                        <g id="Group-3" transform="translate(0.000000, 0.035134)" fill="#F6A960">
                            <path d="M79.5308787,29.0802379 C77.798159,28.9230334 77.5928033,29.040812 77.5275314,30.6942041 C77.4522176,32.6096038 77.4662762,34.5289959 77.4677824,36.4468908 C77.4677824,36.7248683 77.5446025,37.0522529 77.705272,37.270343 C78.1742259,37.9086432 78.3353975,38.6677163 77.64,39.0420128 C77.0620921,39.3529283 76.1136402,39.4482492 75.5467782,39.1817501 C75.0030126,38.9262304 74.5320502,38.1282304 74.3904603,37.4894311 C73.9049372,35.3020428 73.5785774,33.0802191 73.2431799,31.1673148 C67.4068619,30.6058702 61.68,30.0549058 55.7497908,29.483979 C55.5610042,31.442797 55.3315481,33.7110334 55.140251,35.9827632 C55.1226778,36.1898739 55.3124686,36.4428983 55.4625941,36.6300465 C56.2639331,37.6291685 56.2558996,38.488054 55.4148954,39.1463167 C54.6552301,39.7416976 53.3276987,39.6503692 52.8070293,38.7430747 C52.34159,37.9316 52.0724686,36.9329771 51.9916318,35.9937426 C51.7912971,33.6681141 51.7486192,31.3295099 51.6426778,28.9993899 C49.3099582,29.008373 49.2225941,29.0717538 49.1457741,31.3155362 C49.1020921,32.5926356 49.1251883,33.8727295 49.139749,35.1513261 C49.1487866,35.9692886 49.0639331,36.7173824 49.9019247,37.3961066 C50.6103766,37.9695287 50.252887,38.9162492 49.5846025,39.5136263 C48.8038494,40.2118139 47.132887,39.9972173 46.6348117,39.051994 C46.211046,38.2465081 45.9474477,37.3172548 45.8053556,36.4124555 C45.3660251,33.6152135 45.0989121,30.8354386 44.1866109,28.0746281 C43.44,25.8143767 43.772887,23.1982942 43.6498745,20.7394161 C43.6107113,19.9503992 43.6438494,19.1578889 43.6438494,18.0529659 C42.6502092,19.2961291 41.8297908,20.2523317 41.0861925,21.2644293 C37.7698745,25.7819377 33.0195816,27.9962754 27.8786611,29.7988871 C20.4828452,32.3925118 12.9519665,32.4269471 5.31665272,31.6244555 C4.16786611,31.5036826 3.01355649,31.4278251 1.86828452,31.2806019 C1.3451046,31.2132285 0.837991632,31.0230859 0.32334728,30.8883392 C0.215899582,30.7121704 0.107949791,30.5365006 0,30.3603317 C0.471464435,30.0708758 0.95748954,29.8023805 1.41188285,29.4889696 C6.99615063,25.6342154 12.5372385,21.7160803 18.1697071,17.933191 C22.17841,15.2402529 26.8262762,14.3389471 31.5338912,13.9661478 C34.811046,13.7061366 38.1223431,13.8887932 41.4175732,13.8338964 C41.8468619,13.8264105 42.3785774,13.6991497 42.6813389,13.42766 C44.9668619,11.3730221 47.6806695,10.3190034 50.6987448,10.1188795 C55.6915481,9.78850056 60.6898745,9.4551272 65.6902092,9.35781013 C68.7645188,9.2979227 71.8649372,9.96916098 74.9221757,9.7880015 C79.6900418,9.5050334 84.4348117,8.80235422 89.1770711,8.18251932 C89.5139749,8.13860188 89.9066109,7.34958499 90.0020084,6.85501463 C90.3308787,5.14572758 90.5322176,3.41248555 90.8013389,1.69122101 C90.8445188,1.4162379 90.9856067,1.15622664 91.2341423,0.464027767 C92.6093724,3.03220038 93.8133891,5.27997523 95.1705439,7.81471069 C96.0567364,5.66924353 96.8339749,3.78877824 97.7658577,1.53251932 C98.1168201,2.29957749 98.334728,2.67487205 98.4657741,3.07861313 C99.0030126,4.73300338 99.5733891,6.38090582 100.011715,8.0622454 C100.275816,9.07484203 100.753305,9.73110844 101.712301,10.2301704 C107.199665,13.0848045 112.652385,16.0053148 118.116151,18.9048645 C118.455063,19.0845268 118.854728,19.2157801 119.101255,19.4837764 C119.359331,19.7637501 119.642008,20.2099114 119.589289,20.5313073 C119.537573,20.8517051 119.124351,21.2813974 118.796987,21.3577538 C117.804854,21.5908158 116.781088,21.7185756 115.762845,21.8128983 C108.841506,22.4546919 101.9041,22.7087144 94.9621757,22.3274311 C92.209205,22.1762154 89.9528033,23.4393411 87.4975732,24.2682829 C85.1030962,25.0767632 84.2846862,26.3758214 84.5799163,28.8242191 C84.8445188,31.0146019 84.7084519,33.2508983 84.7847699,35.4662341 C84.7983264,35.8664818 84.872636,36.3465794 85.1076151,36.641525 C85.7352301,37.4295437 85.7492887,38.1711497 84.9549791,38.7355887 C84.1451046,39.3115062 83.220251,39.2231722 82.5123013,38.503525 C82.1738912,38.1591722 81.9559833,37.6446394 81.8174059,37.1690334 C81.0346444,34.4870747 80.2930544,31.7931385 79.5308787,29.0802379" id="Fill-1"></path>
                        </g>
                        <path d="M93.2857406,13.9512259 C93.2264937,15.1170345 92.7399665,15.8326893 91.4792134,15.7857775 C90.3289205,15.7433572 89.6044017,15.2268281 89.6074142,14.0096161 C89.6104268,12.7325167 90.3620586,12.1406293 91.5776234,12.0952146 C92.8705105,12.0468056 93.2641506,12.8527906 93.2857406,13.9512259" id="Fill-4" fill="#FEFEFE"></path>
                        <path d="M91.5781757,12.9708188 C92.1400167,12.9733141 92.4322343,13.287224 92.4221925,13.8791114 C92.4116485,14.5388713 92.0631967,14.9216518 91.4837824,14.9101734 C90.9038661,14.899194 90.4770879,14.4774867 90.4705607,13.9105523 C90.4645356,13.3441171 90.9073808,12.9678244 91.5781757,12.9708188" id="Fill-6" fill="#7F8F97"></path>
                        <path d="M99.1871799,13.5394499 C99.1349623,14.5625268 98.7081841,15.1903467 97.6020753,15.1494236 C96.5928703,15.111994 95.9572218,14.6588458 95.9597322,13.5908533 C95.9622427,12.4704593 96.6219916,11.9509358 97.6884351,11.9110109 C98.8231632,11.8685906 99.1681004,12.5757614 99.1871799,13.5394499" id="Fill-8" fill="#FEFEFE"></path>
                        <path d="M97.688887,12.6792169 C98.1819414,12.6812131 98.4380084,12.9566953 98.4294728,13.4762188 C98.4199331,14.0551306 98.1146611,14.3909992 97.6060418,14.381018 C97.0974226,14.3710368 96.7223598,14.0012319 96.7168368,13.5041662 C96.7113138,13.0066015 97.1004351,12.6767216 97.688887,12.6792169" id="Fill-10" fill="#7F8F97"></path>
                    </g>
                </g>
            </g>
        </g>
    </g>
</svg>