<?xml version="1.0" encoding="UTF-8" standalone="no"?>
<svg width="1024px" height="26px" viewBox="0 0 1024 26" version="1.1" xmlns="http://www.w3.org/2000/svg" xmlns:xlink="http://www.w3.org/1999/xlink">
    <!-- Generator: Sketch 3.8.1 (29687) - http://www.bohemiancoding.com/sketch -->
    <title>moldura</title>
    <desc>Created with Sketch.</desc>
    <defs>
        <polygon id="path-1" points="343.665297 0.000271069093 -2.27373675e-13 0.000271069093 -2.27373675e-13 25.0832107 343.665297 25.0832107 343.665297 0.000271069093"></polygon>
        <polygon id="path-3" points="343.665297 0.000271069093 0 0.000271069093 0 25.0832107 343.665297 25.0832107 343.665297 0.000271069093"></polygon>
        <polygon id="path-5" points="343.665297 0.000271069093 0 0.000271069093 0 25.0832107 343.665297 25.0832107 343.665297 0.000271069093"></polygon>
    </defs>
    <g id="Home" stroke="none" stroke-width="1" fill="none" fill-rule="evenodd">
        <g id="Desktop" transform="translate(0.000000, -600.000000)">
            <g id="moldura" transform="translate(-5.000000, 600.000000)">
                <g>
                    <g id="Page-1" transform="translate(858.000000, 13.000000) scale(-1, 1) translate(-858.000000, -13.000000) translate(686.000000, 0.000000)">
                        <mask id="mask-2" fill="white">
                            <use xlink:href="#path-1"></use>
                        </mask>
                        <g id="Clip-2"></g>
                        <path d="M85.0213447,24.8813779 C85.1889793,24.944808 85.3441765,24.9822156 85.4815287,24.9854684 C106.382858,25.5178481 144.787403,23.6436764 165.903954,24.8824621 C166.070507,24.9453502 166.224622,24.9822156 166.361434,24.9854684 C187.262223,25.5178481 225.667308,23.6436764 246.783859,24.8824621 C246.950412,24.9453502 247.104527,24.9822156 247.240798,24.9854684 C268.290836,25.5216431 322.469254,23.6154852 343.486847,24.9079426 L343.665297,12.6550775 C340.261774,9.15665976 336.858251,5.65824204 333.067005,1.76189489 C329.958735,5.53246598 327.348503,8.69909513 324.423009,12.2484738 C320.941076,7.91353689 317.811176,4.01610547 314.585562,-5.42138187e-05 C310.424439,4.51920971 306.801909,8.45404867 302.930091,12.6594146 C300.125186,8.76632026 297.728552,5.44030249 295.029094,1.69466976 C290.870675,5.79160803 287.25896,9.34966095 283.561266,12.9922874 C279.673225,8.77336806 276.141002,4.94153536 272.458989,0.94651906 C268.780762,5.30802077 265.854727,8.77770516 262.678322,12.5450234 C262.095386,11.9454186 261.511369,11.3452716 260.92627,10.7434982 C258.124609,7.17134972 255.580889,3.92719481 252.798155,0.379442517 C249.197256,4.52842606 246.059245,8.14448776 243.041281,11.6228464 C239.76051,7.53837727 236.774451,3.82039359 233.705657,-5.42138187e-05 C229.545074,4.51920971 225.922004,8.45404867 222.050727,12.6594146 C219.245281,8.76632026 216.848647,5.44030249 214.14973,1.69466976 C209.99077,5.79160803 206.379596,9.34966095 202.681901,12.9922874 C198.79332,8.77336806 195.261637,4.94153536 191.579625,0.94651906 C187.900857,5.30802077 184.975363,8.77770516 181.798957,12.5450234 C181.215481,11.9454186 180.631464,11.3452716 180.046365,10.7434982 C177.244704,7.17134972 174.700984,3.92719481 171.91825,0.379442517 C168.317892,4.52842606 165.17988,8.14448776 162.161376,11.6228464 C158.880605,7.53837727 155.894546,3.82039359 152.826292,-5.42138187e-05 C148.665169,4.51920971 145.04264,8.45404867 141.170822,12.6594146 C138.365916,8.76632026 135.969282,5.44030249 133.269825,1.69466976 C129.111405,5.79160803 125.499691,9.34966095 121.801996,12.9922874 C117.913955,8.77336806 114.381732,4.94153536 110.69972,0.94651906 C107.021492,5.30802077 104.095457,8.77770516 100.919052,12.5450234 C100.336117,11.9454186 99.7520993,11.3452716 99.1670005,10.7434982 C96.3653397,7.17134972 93.8210793,3.92719481 91.0388858,0.379442517 C87.4379866,4.52842606 84.2999752,8.14448776 81.2814711,11.6228464 C78.0006999,7.53837727 75.0151819,3.82039359 71.9463873,-5.42138187e-05 C67.7858049,4.51920971 64.1627347,8.45404867 60.2914572,12.6594146 C57.4860112,8.76632026 55.0893773,5.44030249 52.3904603,1.69466976 C48.2315002,5.79160803 44.6203267,9.34966095 40.922632,12.9922874 C37.0340503,8.77336806 33.5023679,4.94153536 29.8198145,0.94651906 C26.0734518,5.3893415 23.1084825,8.90510764 19.8634013,12.7537466 C16.4112102,8.35158455 13.4548931,4.5815556 10.1589807,0.379442517 C6.39855828,4.71275304 -0.000216302698,12.0863745 -0.000216302698,12.0863745 L-0.000216302698,24.9854684 C-0.000216302698,24.9854684 63.5478943,23.6350022 85.0213447,24.8813779" id="Fill-1" fill="#B4DDC3" mask="url(#mask-2)"></path>
                    </g>
                    <g id="Page-1-Copy-2" transform="translate(344.000000, 0.000000)">
                        <mask id="mask-4" fill="white">
                            <use xlink:href="#path-3"></use>
                        </mask>
                        <g id="Clip-2"></g>
                        <path d="M85.0213447,24.8813779 C85.1889793,24.944808 85.3441765,24.9822156 85.4815287,24.9854684 C106.382858,25.5178481 144.787403,23.6436764 165.903954,24.8824621 C166.070507,24.9453502 166.224622,24.9822156 166.361434,24.9854684 C187.262223,25.5178481 225.667308,23.6436764 246.783859,24.8824621 C246.950412,24.9453502 247.104527,24.9822156 247.240798,24.9854684 C268.290836,25.5216431 322.469254,23.6154852 343.486847,24.9079426 L343.665297,12.6550775 C340.261774,9.15665976 336.858251,5.65824204 333.067005,1.76189489 C329.958735,5.53246598 327.348503,8.69909513 324.423009,12.2484738 C320.941076,7.91353689 317.811176,4.01610547 314.585562,-5.42138187e-05 C310.424439,4.51920971 306.801909,8.45404867 302.930091,12.6594146 C300.125186,8.76632026 297.728552,5.44030249 295.029094,1.69466976 C290.870675,5.79160803 287.25896,9.34966095 283.561266,12.9922874 C279.673225,8.77336806 276.141002,4.94153536 272.458989,0.94651906 C268.780762,5.30802077 265.854727,8.77770516 262.678322,12.5450234 C262.095386,11.9454186 261.511369,11.3452716 260.92627,10.7434982 C258.124609,7.17134972 255.580889,3.92719481 252.798155,0.379442517 C249.197256,4.52842606 246.059245,8.14448776 243.041281,11.6228464 C239.76051,7.53837727 236.774451,3.82039359 233.705657,-5.42138187e-05 C229.545074,4.51920971 225.922004,8.45404867 222.050727,12.6594146 C219.245281,8.76632026 216.848647,5.44030249 214.14973,1.69466976 C209.99077,5.79160803 206.379596,9.34966095 202.681901,12.9922874 C198.79332,8.77336806 195.261637,4.94153536 191.579625,0.94651906 C187.900857,5.30802077 184.975363,8.77770516 181.798957,12.5450234 C181.215481,11.9454186 180.631464,11.3452716 180.046365,10.7434982 C177.244704,7.17134972 174.700984,3.92719481 171.91825,0.379442517 C168.317892,4.52842606 165.17988,8.14448776 162.161376,11.6228464 C158.880605,7.53837727 155.894546,3.82039359 152.826292,-5.42138187e-05 C148.665169,4.51920971 145.04264,8.45404867 141.170822,12.6594146 C138.365916,8.76632026 135.969282,5.44030249 133.269825,1.69466976 C129.111405,5.79160803 125.499691,9.34966095 121.801996,12.9922874 C117.913955,8.77336806 114.381732,4.94153536 110.69972,0.94651906 C107.021492,5.30802077 104.095457,8.77770516 100.919052,12.5450234 C100.336117,11.9454186 99.7520993,11.3452716 99.1670005,10.7434982 C96.3653397,7.17134972 93.8210793,3.92719481 91.0388858,0.379442517 C87.4379866,4.52842606 84.2999752,8.14448776 81.2814711,11.6228464 C78.0006999,7.53837727 75.0151819,3.82039359 71.9463873,-5.42138187e-05 C67.7858049,4.51920971 64.1627347,8.45404867 60.2914572,12.6594146 C57.4860112,8.76632026 55.0893773,5.44030249 52.3904603,1.69466976 C48.2315002,5.79160803 44.6203267,9.34966095 40.922632,12.9922874 C37.0340503,8.77336806 33.5023679,4.94153536 29.8198145,0.94651906 C26.0734518,5.3893415 23.1084825,8.90510764 19.8634013,12.7537466 C16.4112102,8.35158455 13.4548931,4.5815556 10.1589807,0.379442517 C6.39855828,4.71275304 -0.000216302699,12.0863745 -0.000216302699,12.0863745 L-0.000216302699,24.9854684 C-0.000216302699,24.9854684 63.5478943,23.6350022 85.0213447,24.8813779" id="Fill-1" fill="#B4DDC3" mask="url(#mask-4)"></path>
                    </g>
                    <g id="bg_grass" transform="translate(172.000000, 13.000000) scale(-1, 1) translate(-172.000000, -13.000000) ">
                        <mask id="mask-6" fill="white">
                            <use xlink:href="#path-5"></use>
                        </mask>
                        <g id="Clip-2"></g>
                        <path d="M85.0213447,24.8813779 C85.1889793,24.944808 85.3441765,24.9822156 85.4815287,24.9854684 C106.382858,25.5178481 144.787403,23.6436764 165.903954,24.8824621 C166.070507,24.9453502 166.224622,24.9822156 166.361434,24.9854684 C187.262223,25.5178481 225.667308,23.6436764 246.783859,24.8824621 C246.950412,24.9453502 247.104527,24.9822156 247.240798,24.9854684 C268.290836,25.5216431 322.469254,23.6154852 343.486847,24.9079426 L343.665297,12.6550775 C340.261774,9.15665976 336.858251,5.65824204 333.067005,1.76189489 C329.958735,5.53246598 327.348503,8.69909513 324.423009,12.2484738 C320.941076,7.91353689 317.811176,4.01610547 314.585562,-5.42138187e-05 C310.424439,4.51920971 306.801909,8.45404867 302.930091,12.6594146 C300.125186,8.76632026 297.728552,5.44030249 295.029094,1.69466976 C290.870675,5.79160803 287.25896,9.34966095 283.561266,12.9922874 C279.673225,8.77336806 276.141002,4.94153536 272.458989,0.94651906 C268.780762,5.30802077 265.854727,8.77770516 262.678322,12.5450234 C262.095386,11.9454186 261.511369,11.3452716 260.92627,10.7434982 C258.124609,7.17134972 255.580889,3.92719481 252.798155,0.379442517 C249.197256,4.52842606 246.059245,8.14448776 243.041281,11.6228464 C239.76051,7.53837727 236.774451,3.82039359 233.705657,-5.42138187e-05 C229.545074,4.51920971 225.922004,8.45404867 222.050727,12.6594146 C219.245281,8.76632026 216.848647,5.44030249 214.14973,1.69466976 C209.99077,5.79160803 206.379596,9.34966095 202.681901,12.9922874 C198.79332,8.77336806 195.261637,4.94153536 191.579625,0.94651906 C187.900857,5.30802077 184.975363,8.77770516 181.798957,12.5450234 C181.215481,11.9454186 180.631464,11.3452716 180.046365,10.7434982 C177.244704,7.17134972 174.700984,3.92719481 171.91825,0.379442517 C168.317892,4.52842606 165.17988,8.14448776 162.161376,11.6228464 C158.880605,7.53837727 155.894546,3.82039359 152.826292,-5.42138187e-05 C148.665169,4.51920971 145.04264,8.45404867 141.170822,12.6594146 C138.365916,8.76632026 135.969282,5.44030249 133.269825,1.69466976 C129.111405,5.79160803 125.499691,9.34966095 121.801996,12.9922874 C117.913955,8.77336806 114.381732,4.94153536 110.69972,0.94651906 C107.021492,5.30802077 104.095457,8.77770516 100.919052,12.5450234 C100.336117,11.9454186 99.7520993,11.3452716 99.1670005,10.7434982 C96.3653397,7.17134972 93.8210793,3.92719481 91.0388858,0.379442517 C87.4379866,4.52842606 84.2999752,8.14448776 81.2814711,11.6228464 C78.0006999,7.53837727 75.0151819,3.82039359 71.9463873,-5.42138187e-05 C67.7858049,4.51920971 64.1627347,8.45404867 60.2914572,12.6594146 C57.4860112,8.76632026 55.0893773,5.44030249 52.3904603,1.69466976 C48.2315002,5.79160803 44.6203267,9.34966095 40.922632,12.9922874 C37.0340503,8.77336806 33.5023679,4.94153536 29.8198145,0.94651906 C26.0734518,5.3893415 23.1084825,8.90510764 19.8634013,12.7537466 C16.4112102,8.35158455 13.4548931,4.5815556 10.1589807,0.379442517 C6.39855828,4.71275304 -0.000216302699,12.0863745 -0.000216302699,12.0863745 L-0.000216302699,24.9854684 C-0.000216302699,24.9854684 63.5478943,23.6350022 85.0213447,24.8813779" id="Fill-1" fill="#B4DDC3" mask="url(#mask-6)"></path>
                    </g>
                </g>
            </g>
        </g>
    </g>
</svg>