<?xml version="1.0" encoding="UTF-8" standalone="no"?>
<svg width="125px" height="102px" viewBox="0 0 125 102" version="1.1" xmlns="http://www.w3.org/2000/svg" xmlns:xlink="http://www.w3.org/1999/xlink">
    <!-- Generator: Sketch 3.8.1 (29687) - http://www.bohemiancoding.com/sketch -->
    <title>footerlogo</title>
    <desc>Created with Sketch.</desc>
    <defs></defs>
    <g id="Symbols" stroke="none" stroke-width="1" fill="none" fill-rule="evenodd">
        <g id="Rodape" transform="translate(-41.000000, -35.000000)">
            <g id="footerlogo">
                <g transform="translate(41.000000, 35.000000)">
                    <g id="Group-3" transform="translate(0.000000, 0.577298)" fill="#B4DDC3">
                        <path d="M41.2803912,63.2300208 C32.0164918,63.0076255 30.2585832,64.4644312 27.5124324,74.3583123 C26.321116,78.6504651 24.5903356,80.3188177 20.422666,78.3033114 C3.22957575,69.9863451 -5.9552642,37.7250709 4.28990157,20.9028384 C9.56285231,12.2441427 17.6703144,7.86752618 26.4621827,5.46147193 C45.8394822,0.156529133 61.74747,-2.1115935 81.3665981,3.31113359 C99.7114751,8.38205759 106.337736,21.7559997 106.085056,41.5150906 C105.877332,57.8258912 92.58993,62.8270745 79.4009649,63.9491249 C66.8421495,65.0177075 54.0585575,63.536105 41.2803912,63.2300208 Z" id="Fill-1"></path>
                    </g>
                    <g id="Page-1" transform="translate(117.813981, 83.000000)" fill="#ABD4BA">
                        <g id="Group-3" transform="translate(0.000000, 0.554385)">
                            <path d="M2.31786184,4.00015414 C3.18531622,4.02673274 3.96595095,3.468582 3.99414878,2.55457325 C4.02012047,1.64130279 3.29217116,1.03885437 2.4172963,1.01227577 C1.57655566,0.987912045 0.657899957,1.52465224 0.629702125,2.45490348 C0.602988389,3.37629517 1.46895867,3.97505212 2.31786184,4.00015414 M5.80623055,1.11342213 L3.79008552,1.05362027 C4.32732844,1.45377596 4.55958953,2.00749693 4.54252242,2.57967527 C4.50690411,3.7572552 3.47026274,4.58119201 2.30153678,4.54723046 C1.08383564,4.51031573 0.0442260743,3.65094078 0.0805864374,2.44678224 C0.0983955948,1.86648266 0.338077172,1.31866804 0.950266959,0.969454679 L0.726910443,0.962071733 C0.400409223,0.952473903 0.131045717,0.782666138 0.140692344,0.466676036 C0.145144633,0.313849047 0.260162108,0.180217719 0.423412718,0.183909192 C0.525815373,0.186862371 0.628218028,0.250355709 0.667546584,0.354455252 C0.667546584,0.354455252 0.691292128,0.414995412 0.776627674,0.417210296 L5.78842139,0.565607516 C5.87375694,0.5678224 5.90121272,0.509497125 5.90121272,0.509497125 C5.94796176,0.40835076 6.05184851,0.351502074 6.15499322,0.354455252 C6.31898588,0.359623315 6.42509877,0.499899294 6.42138853,0.652726283 C6.41099986,0.968716385 6.13124767,1.12301996 5.80623055,1.11342213" id="Fill-1"></path>
                        </g>
                        <path d="M2.56117945,10.0254504 C3.32400503,9.91765943 4.00594735,9.27238992 4.00075301,8.46912537 C3.99555867,7.68431817 3.30396973,7.03092743 2.53966005,6.95119161 L2.56117945,10.0254504 Z M1.98980232,6.95488308 C1.23439722,7.07153363 0.544292374,7.69170112 0.55022876,8.49422738 C0.554681049,9.09224603 0.737966961,9.51824204 1.02291348,9.79731741 C1.08301939,9.85711927 1.10973312,9.93390191 1.11047517,10.0099463 C1.11121722,10.1465308 1.00065203,10.2838536 0.855210581,10.2853302 C0.777295517,10.2860685 0.70902708,10.2602281 0.657083704,10.2092858 C0.241536698,9.82906408 0.00630740992,9.27460481 0.000371024113,8.49865715 C-0.00779150638,7.2686583 1.05036926,6.40633017 2.26881245,6.39820893 C3.43679636,6.39008769 4.54170617,7.23543504 4.5498687,8.46543389 C4.55877328,9.70429228 3.47464082,10.5747417 2.29923643,10.5828629 C2.13598582,10.5843395 2.01428991,10.4396337 2.01354786,10.2934514 L1.98980232,6.95488308 Z" id="Fill-4"></path>
                        <path d="M5.25666964,12.5665129 L4.57027503,12.571681 L4.57769551,13.5447533 C4.57769551,13.6901973 4.44115863,13.7854373 4.30387971,13.7861756 C4.14137115,13.7876522 4.02783777,13.6606655 4.02783777,13.5152215 L4.02041729,12.5746341 L1.72006779,12.5916149 C1.18801921,12.5960447 0.655970632,12.6853783 0.66116497,13.3077607 C0.662649066,13.4620643 0.706429911,13.6503294 0.750210757,13.7942969 C0.79473365,13.9655812 0.701977622,14.1110253 0.563956652,14.1472017 C0.435582309,14.1819016 0.281236278,14.14794 0.218904227,13.9604132 C0.158056272,13.7728863 0.113533379,13.5521362 0.111307234,13.3114522 C0.105370848,12.406303 0.712366297,12.0519215 1.71635755,12.0452769 L4.01670705,12.0282961 L4.0144809,11.7728462 C4.01373886,11.6015618 4.1421132,11.4989389 4.28755465,11.4982006 C4.42483357,11.496724 4.56285454,11.5890108 4.56433864,11.7344549 L4.56582274,12.0246046 L5.21808313,12.0201749 C5.30416072,12.0201749 5.32939036,11.960373 5.32939036,11.960373 C5.37168711,11.8577501 5.47483181,11.7964716 5.57723447,11.7957333 C5.74048508,11.794995 5.85253436,11.9308412 5.85401846,12.0851448 C5.85698665,12.4003966 5.58317085,12.564298 5.25666964,12.5665129" id="Fill-6"></path>
                        <g id="Group-10" transform="translate(0.000000, 14.581983)">
                            <path d="M2.24157928,3.64791377 C2.45380507,3.26326227 2.50352231,2.94579558 2.50055411,2.5707419 C2.49535978,1.87822154 2.18147338,1.19751389 1.42606828,1.20268195 C0.816104639,1.20711172 0.537094506,1.76452417 0.541546796,2.31086219 C0.545999085,2.9428424 0.963030188,3.6575116 1.66574986,3.65308183 L2.24157928,3.64791377 Z M0.45621125,3.67818385 C0.525221735,3.66046478 0.628366438,3.65972648 0.713701984,3.65898819 C0.273667386,3.4234722 0.00356183149,2.80108983 -0.000148409645,2.29831118 C-0.00534274723,1.45222554 0.485893179,0.662988578 1.41345346,0.656343927 C2.53023604,0.64896098 3.04299137,1.55041872 3.04892775,2.59215245 C3.05189595,2.95982317 2.94429895,3.36957669 2.77436991,3.6442223 C2.82557124,3.643484 2.92797389,3.64274571 3.01405149,3.64200741 C3.21217836,3.64200741 3.45185994,3.61469051 3.52012838,3.5881119 C3.89708888,3.44931251 4.00542792,2.96129976 4.00171767,2.46590407 C3.99874948,2.0901121 3.93715948,1.82580262 3.83995116,1.4847105 C3.83178863,1.45001065 3.822142,1.39906832 3.82139996,1.36510677 C3.82065791,1.21154149 3.93196514,1.0993207 4.08556912,1.09858241 C4.19836045,1.09784412 4.30150516,1.17388846 4.345286,1.28463266 C4.46772396,1.59988446 4.54712312,2.01849752 4.55009131,2.42751275 C4.55528565,3.13627559 4.36457926,3.84651503 3.72122345,4.09975008 C3.52458067,4.17653273 3.27599451,4.18686885 3.03557088,4.18834544 L0.692182586,4.20606451 C0.605362943,4.2068028 0.580875352,4.26734296 0.580875352,4.26734296 C0.538578603,4.36996592 0.436917996,4.42976778 0.333773292,4.42976778 C0.169780634,4.43198267 0.0154346031,4.29613646 0.0139505067,4.14183288 C0.011724362,3.89450418 0.225434251,3.7394623 0.45621125,3.67818385 L0.45621125,3.67818385 Z" id="Fill-8"></path>
                        </g>
                    </g>
                    <path d="M33.9149246,53.8394352 C35.0992652,53.4868572 35.772045,52.6305963 35.7859967,51.2869254 C35.7968479,50.2129186 35.5774969,49.1358122 35.6054002,48.064905 C35.6565563,46.1230138 35.8061491,44.1842223 35.9332641,42.2454308 C36.0565038,40.3508083 36.1812936,38.4561859 36.3463882,36.565438 C36.5680645,34.0199023 36.8377965,31.4782411 37.0687739,28.9327055 C37.2175915,27.2992232 37.3346304,25.6626414 37.465621,24.0276094 C38.1128228,24.090376 38.4964933,24.5010713 38.4794413,25.3697305 C38.4499878,26.8234367 38.3655028,28.2779178 38.2507892,29.7285244 C37.9810571,33.1411695 37.6950482,36.5530396 37.3857865,39.9625851 C37.2051901,41.9478704 36.9470844,43.9254068 36.7602873,45.9091424 C36.5998432,47.6154649 36.5207839,49.3132635 36.8261701,51.0312095 C36.977313,51.8781716 36.8098932,52.7940995 36.7099063,53.6697328 C36.6339473,54.343118 36.1983456,54.7979824 35.5054134,54.8406017 C34.8000797,54.8847708 34.2327123,54.5926348 33.9149246,53.8394352" id="Fill-4" fill="#E6E86D"></path>
                    <path d="M21.9841663,23.8174574 C23.1739325,24.255274 23.0909977,25.2641895 22.9204774,26.4195605 C22.5430076,28.989118 22.0709766,31.5447273 21.7229603,34.1173843 C21.2594553,37.5439775 21.1439666,40.9899431 21.3873455,44.4436577 C21.399747,44.6187844 21.3958715,44.7946859 21.399747,44.9698126 C21.3268883,44.996934 21.2540297,45.0240553 21.1819461,45.0504018 C20.9594947,44.5908881 20.6378316,44.1530715 20.531644,43.668761 C19.9813286,41.16352 20.0836408,38.6148847 20.2665625,36.0902713 C20.4665362,33.3362884 20.826954,30.5916043 21.189697,27.8515696 C21.3671931,26.5102234 21.7082336,25.1905743 21.9841663,23.8174574" id="Fill-6" fill="#E6E86D"></path>
                    <path d="M21.2973573,50.2553055 C22.0755497,50.2390326 22.8839706,50.2119113 23.6916164,50.206487 C25.2355997,50.1964133 26.5424047,49.5230281 27.6104815,48.5265109 C28.8204001,47.3967115 29.8597984,46.0832616 30.9712803,44.8473014 C31.0914196,44.7140192 31.1952819,44.5667888 31.3859545,44.3257959 C31.3510754,44.752764 31.2557391,45.0611729 31.3146461,45.3354863 C31.6828147,47.0433587 30.7744069,48.1313136 29.6257206,49.2045455 C27.4322103,51.2549222 24.9829197,51.8136227 22.1770867,50.7372912 C21.8399217,50.6078835 21.5376358,50.3885877 21.2973573,50.2553055" id="Fill-8" fill="#E6E86D"></path>
                    <path d="M33.2321461,42.7348555 C32.2532049,44.1064227 31.3339458,45.4942627 30.3108244,46.8007385 C29.1915916,48.2304229 27.9615206,49.6570077 26.1811344,50.2056346 C22.3250518,51.3935512 18.9944815,49.880178 18.1573822,45.8429662 C17.7372824,43.8166113 17.6388457,41.6918446 17.6520222,39.6135716 C17.6822508,34.9610918 18.1635829,30.3372832 18.9580522,25.7506697 C19.0696655,25.1082803 19.2378604,24.4596918 19.4967411,23.865346 C19.6688116,23.467824 20.1214653,22.8308589 20.321439,22.875028 C20.8872562,23.0005613 21.5135305,23.3143945 21.8863497,23.7498864 C22.4591427,24.420172 22.1374795,25.283407 21.9747102,26.0544292 C20.8554774,31.3570473 20.2881101,36.7108086 20.4361526,42.1319859 C20.4578552,42.9061077 20.5128867,43.6872036 20.6508531,44.4466023 C20.8981074,45.8119703 21.67785,46.8480072 22.9931811,47.2912481 C24.434077,47.7771083 25.874973,47.4508768 26.911271,46.3908181 C29.2148444,44.0335824 31.1704014,41.3911846 32.6640037,38.4349537 C33.5018781,36.7766748 33.8026138,34.9781396 34.0002622,33.1532578 C34.2048865,31.2663844 34.445165,29.3826105 34.6420384,27.4949621 C34.7203227,26.7479617 34.7040458,25.9924374 34.7660531,25.2438872 C34.8210847,24.5681773 35.0737646,23.9761562 35.6481078,23.5600367 C36.4937331,22.9478683 37.5075535,23.3205936 37.5486333,24.352756 C37.605215,25.756094 37.5842876,27.1741549 37.4455461,28.5712937 C37.1145818,31.8847519 36.6045713,35.1734135 36.5487647,38.5209673 C36.5115603,40.7394965 36.1348656,42.9533764 35.8961372,45.1680312 C35.6961635,47.0231338 35.7628214,48.8635135 36.0085256,50.7147417 C36.1108377,51.484989 35.9930237,52.3056046 35.8535072,53.0812762 C35.7442192,53.690345 35.3256695,54.1273868 34.6288618,54.1475341 C33.9243032,54.1669065 33.3197315,53.8825194 33.1244083,53.2176581 C32.9104829,52.490805 32.801195,51.7035099 32.8151466,50.9456609 C32.8469254,49.2563861 32.9864419,47.569436 33.0771277,45.881711 C33.1321592,44.8503235 33.1786648,43.818936 33.2321461,42.7348555" id="Fill-10" fill="#FFFFFF"></path>
                    <path d="M50.2797516,33.9641872 C50.3859392,32.4887839 50.4657737,31.1125674 50.586688,29.7410002 C50.7750354,27.6170084 50.9959366,25.4961161 51.1943601,23.3728992 C51.3757317,21.4325578 51.5586534,19.4922165 51.7097963,17.5495505 C51.7384747,17.1837992 51.8989188,17.0009236 52.2074054,16.9288582 C52.92049,16.7622554 53.6343497,16.5259119 54.3575105,16.4871671 C56.1937034,16.390305 58.036097,16.322889 59.8738401,16.3647334 C61.3217119,16.3972791 62.7641581,16.6684929 64.2135801,16.7227357 C65.1979469,16.7591558 66.1954903,16.6444711 67.1775318,16.5197128 C67.7510999,16.4468725 68.248709,16.1555113 68.3595471,15.4759269 C68.4122534,15.4340825 68.4657347,15.3914632 68.5192161,15.3496187 C68.6920616,15.5836375 68.8687825,15.8153317 69.0369775,16.05245 C69.3981704,16.563107 69.2478025,17.1334309 68.6602828,17.3527267 C68.3742739,17.4588876 68.0533858,17.4906583 67.7441241,17.5139052 C65.6575765,17.6688846 63.597382,17.3147568 61.5240109,17.1985223 C59.7110708,17.0962359 57.8826288,17.1737256 56.0658132,17.268263 C55.1969351,17.3139819 54.3350328,17.5596241 53.4801064,17.7603224 C52.8553823,17.9083276 52.5623975,18.2694295 52.5143418,19.0001571 C52.3453717,21.6045849 52.0663386,24.2020386 51.8369114,26.8025919 C51.6415882,29.0187965 51.4369639,31.2350011 51.2796203,33.4535303 C51.2238136,34.2385007 50.7014016,33.8254807 50.2797516,33.9641872" id="Fill-12" fill="#E6E86D"></path>
                    <path d="M46.7407591,53.2006103 C47.5995611,53.2455543 47.8452652,52.6814295 47.9623041,52.070036 C48.3529505,50.0351573 48.7683998,48.0026033 49.0606094,45.9522266 C49.4597818,43.1525248 49.7550918,40.3373251 50.1023331,37.4632333 C50.9061034,37.4074407 51.7432028,37.3361502 52.5818523,37.2950807 C54.256051,37.2113918 55.9317998,37.1385516 57.6067736,37.0711355 C58.7996401,37.023092 59.8917447,36.7464538 60.7443459,35.8305259 C60.9931504,35.5631866 61.70546,35.6468754 61.9992198,35.9521847 C62.3596376,36.3272347 62.0534763,36.5914745 61.8170732,36.8394414 C61.2458304,37.4384366 60.5280953,37.7460706 59.7095981,37.7964389 C57.8160484,37.9134483 55.9217236,38.0211589 54.0273988,38.1195708 C53.1623962,38.1645148 52.2966184,38.1924111 51.4300656,38.2024847 C51.0572464,38.2063592 50.9619101,38.3473904 50.9146294,38.7185659 C50.3216841,43.3826692 49.7039358,48.0436728 49.0900629,52.7054513 C49.0730109,52.8317595 49.0311559,52.955743 49.0001523,53.0805013 C48.9040409,53.4663999 48.8893141,53.9166149 48.4002311,54.0421481 C47.8483656,54.1847291 47.3856357,53.9964292 47.0104912,53.5818595 C46.9275563,53.4896468 46.865549,53.3780617 46.7407591,53.2006103" id="Fill-14" fill="#E6E86D"></path>
                    <path d="M50.2216972,34.9469887 C51.67732,34.8462521 53.0321807,34.6959222 54.3893668,34.6711255 C56.3371729,34.6362551 58.2873043,34.6664761 60.2343354,34.7338921 C60.5777011,34.7455156 60.9094405,35.0732969 61.2466055,35.2553976 C61.0373307,35.5777546 60.8823123,35.9590038 60.6079297,36.2116201 C59.9638283,36.8028663 59.1197531,36.9059276 58.2919549,36.9500967 C55.6791198,37.090353 53.0647346,37.2019381 50.4511244,37.3251467 C50.3596636,37.3297961 50.2689778,37.3367701 50.1023331,37.3476187 C50.0054466,38.2503733 49.9263872,39.1570025 49.8093483,40.0589822 C49.3008879,43.9745353 48.7823514,47.8885385 48.26459,51.8025417 C48.248313,51.9296248 48.2087833,52.0528333 48.1746793,52.1768168 C47.9661796,52.9416399 47.7716315,53.1190912 47.1763608,53.09042 C46.4904044,53.0578744 45.8765316,52.6169581 45.8532788,51.9985906 C45.8199499,51.1384552 45.8354517,50.2651467 45.9509404,49.4135352 C46.3191091,46.7029465 46.790365,44.006306 47.1314055,41.2926178 C47.4267155,38.9400314 47.6135127,36.5734969 47.8220125,34.2108369 C48.129724,30.7129532 48.4475117,27.2158444 48.6955411,23.7140862 C48.821106,21.937248 48.7668496,20.1487865 48.8652863,18.3696236 C48.9234182,17.309565 49.1125406,16.2557055 49.2551575,15.201071 C49.3342169,14.60905 49.7171123,14.2944419 50.2844797,14.2293506 C51.087475,14.1379128 51.8943457,14.0426005 52.7019916,14.0232281 C56.2216842,13.9379894 59.7413769,13.8604998 63.2618447,13.8248545 C64.2679141,13.8147809 65.2809593,13.9139676 66.2800528,14.0441503 C66.9195037,14.1278391 67.511674,14.4091266 67.933324,14.9484547 C68.590602,15.7884427 68.3991543,16.423858 67.3644065,16.5021226 C66.0467501,16.6013094 64.6988652,16.6958468 63.3967107,16.5323436 C60.2715398,16.1394709 57.1572202,16.0255611 54.0413505,16.4866247 C53.3329164,16.5920106 52.6539358,16.9197919 51.9757304,17.1809321 C51.8493904,17.2297506 51.7238255,17.4474966 51.7098738,17.5970516 C51.517651,19.6846233 51.3525564,21.7752946 51.1642091,23.8636412 C50.9704361,26.0054557 50.7448843,28.1457204 50.5588622,30.2883098 C50.4270966,31.8063324 50.3371859,33.3282295 50.2216972,34.9469887" id="Fill-16" fill="#FFFFFF"></path>
                    <path d="M69.9332163,42.4900656 C68.0691201,39.3463097 68.7605022,34.6845312 71.7159279,31.8305867 C74.1241387,29.5043468 79.0366716,29.4105843 81.7990995,31.5423251 C78.2282507,30.2513472 74.9976673,30.8061732 72.4507151,33.2672451 C69.905313,35.7275422 69.2356336,38.9898573 69.9332163,42.4900656" id="Fill-18" fill="#E6E86D"></path>
                    <path d="M85.8729054,45.4552854 C85.9054592,46.2092598 85.9480893,46.7826834 85.9418886,47.3553321 C85.9403384,47.4955884 85.8031471,47.6606414 85.6868833,47.7706767 C84.125073,49.2414306 82.2803541,50.1503845 80.1473009,50.378979 C77.8243503,50.6277208 75.5223271,50.4812653 73.3078893,49.6645242 C72.6079813,49.4064836 71.9507033,49.0337583 71.2957505,48.6734313 C76.6934911,50.2673939 81.7044607,50.1348865 85.8729054,45.4552854" id="Fill-20" fill="#E6E86D"></path>
                    <path d="M89.2583521,33.2865401 C90.0450705,33.7437291 90.1287804,34.3760448 90.1442823,34.9936375 C90.2000889,37.1718721 90.1776112,39.3524314 90.2636464,41.5291163 C90.3744846,44.3272682 90.5620568,47.1215457 90.7139749,49.917373 C90.7457536,50.5000953 90.8255881,51.0890168 90.7690064,51.6632153 C90.7349023,52.0088192 90.5581814,52.4799564 90.2977505,52.6202127 C90.0884756,52.7317978 89.6443479,52.4567095 89.3304357,52.3017302 C89.1537147,52.2149417 89.0281498,52.0235422 88.844453,51.8445411 C89.9993401,51.4043998 89.9791877,50.4280299 89.9660111,49.5299247 C89.9435334,47.9561095 89.8365707,46.3830692 89.7420095,44.8108038 C89.6148944,42.6961107 89.4319727,40.5837423 89.3366364,38.4674994 C89.2614525,36.7851987 89.28238,35.0997983 89.2583521,33.2865401" id="Fill-22" fill="#E6E86D"></path>
                    <path d="M86.5162317,38.4936134 C86.6441219,37.3087964 86.4774771,36.351024 86.0837304,35.4157237 C84.7311949,32.2045518 79.9535279,28.9980293 75.5672824,30.2688599 C74.1860685,30.6694815 72.7785015,31.1088479 71.746079,32.1588329 C70.0253748,33.9085497 69.0425582,36.0480394 68.9007163,38.5091114 C68.8115807,40.0457315 68.9410211,41.5769274 69.6688325,42.9895641 C70.3819171,44.3750794 71.5747837,45.2832583 72.8412839,46.0907006 C74.0698047,46.8733463 75.4215651,47.4103497 76.8973403,47.3437086 C77.8584543,47.2995395 78.8226687,47.0918672 79.7620802,46.8601731 C81.2843609,46.485898 82.7423089,45.9403707 83.8111607,44.7036356 C85.3993242,42.8663555 86.5751387,40.8485245 86.5162317,38.4936134 M86.9130788,44.7671771 C86.2930052,45.4072418 85.7326137,45.9938386 85.1636962,46.5719115 C82.4888538,49.2902491 79.162159,49.9117163 75.5424795,49.5041206 C73.3598205,49.2584784 71.3399308,48.5401491 69.6362786,47.1042655 C67.8334147,45.5846931 66.9118303,43.5684119 66.648299,41.279367 C66.3491135,38.684238 66.5289349,36.0984077 67.4970248,33.6427601 C69.1107663,29.5482059 73.6264521,26.8073963 77.998746,27.1382772 C80.409282,27.3203779 82.6043425,28.0968244 84.5459479,29.4900887 C85.3365417,30.058088 85.9263867,30.9058249 86.6100179,31.6241542 C86.9828371,32.0162519 87.2572197,32.4486443 87.9920069,32.2851411 C88.6880394,32.1293868 89.2368046,32.8841362 89.2608324,33.8488826 C89.2964867,35.270818 89.2732339,36.6935284 89.3267152,38.1146889 C89.4011241,40.0968747 89.5274641,42.0775106 89.6228004,44.0596964 C89.7282129,46.2557536 89.8483521,48.4525858 89.9026086,50.6501928 C89.9119097,51.0267926 89.6274509,51.4095916 89.4778582,51.7900659 C89.0879869,51.624238 88.6175061,51.5467483 88.322196,51.2763094 C87.4881971,50.5122612 87.2308665,49.4715749 87.1657588,48.375871 C87.1014262,47.2886909 87.0363184,46.200736 86.9696605,45.1135559 C86.9642349,45.0252177 86.9417572,44.9384293 86.9130788,44.7671771" id="Fill-24" fill="#FFFFFF"></path>
                    <path d="M43.0600799,99.7250207 C43.3577152,99.7064231 43.6506999,99.7064231 43.9382591,99.6661285 C45.3132722,99.474729 46.6045755,99.0508605 47.7052061,98.1767771 C49.1988083,96.9911851 49.3328992,95.1709528 47.9594363,94.0078328 C46.4929622,92.7664483 44.7753584,92.0574178 42.8329779,92.0729158 C41.8191576,92.0806647 40.8061124,92.2340943 39.7938423,92.3356057 C38.814126,92.4340176 38.5467193,92.6812097 38.4932379,93.6436314 C38.4188291,94.9718043 38.4188291,96.3038517 38.333569,97.6304749 C38.2932642,98.259691 38.5761728,98.6029702 39.0947093,98.8362141 C40.3581092,99.4057632 41.6811912,99.7126223 43.0600799,99.7250207 M38.7916483,89.4274184 C38.8606315,90.5665166 39.0125495,90.7044482 40.1178307,90.5455944 C40.2829253,90.5223475 40.4464697,90.4890269 40.6115643,90.4743039 C43.7096069,90.2061896 46.7107631,89.5366789 49.5623265,88.2720475 C51.8945782,87.2383353 53.9811258,85.8853656 55.3770665,83.6676113 C56.1258053,82.4781448 56.5257528,81.1561711 56.4714964,79.7722056 C56.4079388,78.1728188 55.3840423,77.1034613 54.0632856,76.3649848 C50.2498331,74.2340189 46.2255555,73.9736536 42.0927651,75.2220122 C40.5650588,75.6838506 40.204641,76.3301144 40.1325575,77.931051 C40.0922527,78.8214073 39.968238,79.7078891 39.8620504,80.5935961 C39.5101586,83.5389784 39.1489657,86.482811 38.7916483,89.4274184 M46.6309286,91.3119672 C47.4788792,91.8481957 48.2694731,92.3046099 49.0127863,92.8268902 C50.106441,93.5963627 50.8823081,94.5804815 50.9567169,95.994668 C51.0427522,97.6358992 50.13977,98.7463261 48.9407027,99.6444314 C46.9758445,101.11751 44.7141261,101.656063 42.3004897,101.37865 C41.0541418,101.235294 39.8147697,100.928435 38.6071764,100.575857 C36.9833587,100.10162 36.4904003,99.2600826 36.5454318,97.5444613 C36.6206157,95.2197713 36.7461806,92.8950812 36.9229016,90.5758153 C37.0585427,88.7974274 37.314323,87.029888 37.5026704,85.2553746 C37.7282221,83.129833 37.928971,81.0011917 38.1607235,78.876425 C38.2669111,77.908579 38.4196042,76.9461573 38.5552453,75.9814109 C38.7141391,74.8585856 39.4357498,74.1960489 40.398414,73.7233619 C41.7873788,73.0414528 43.2910573,72.8120834 44.8009364,72.7283946 C47.8098435,72.5617918 50.7830963,72.8206073 53.5974553,73.9969005 C55.7979414,74.915928 57.5612757,76.3479371 58.1007397,78.7950608 C58.6836089,81.4444326 57.9085169,83.8101923 56.1978889,85.8628936 C54.4167275,88.0008336 51.9999907,89.2003737 49.4855924,90.2271118 C48.5671084,90.6021618 47.6307973,90.9338176 46.6309286,91.3119672" id="Fill-26" fill="#758289"></path>
                    <path d="M82.9341441,96.9136179 C82.9938262,98.3905711 83.0868373,98.5029311 84.5068058,98.9221502 C85.8360885,99.3157977 88.975211,99.3274212 90.3540997,99.0972768 C91.747715,98.8640329 93.0312674,98.3595752 94.1086452,97.4258247 C95.7107603,96.0372098 95.5937214,94.1782326 93.8451139,92.9864415 C92.7289815,92.2254929 89.6983718,91.8233215 88.3628884,91.7923257 C86.9669477,91.75978 85.5609309,91.9783009 84.1665404,92.142579 C83.127142,92.2657875 82.9031405,92.5571487 82.9008152,93.6094584 C82.8977148,94.7105866 82.9217427,95.8124897 82.9341441,96.9136179 M82.9930511,89.2777859 C83.1162908,90.4347066 83.2728593,90.5555905 84.424646,90.3215717 C84.5672629,90.2929006 87.5529172,89.7225766 90.3370476,88.316914 C92.6134928,87.1669673 94.6302821,85.7109364 95.9138344,83.425766 C96.6021161,82.1998794 96.9361807,80.8608579 96.8129411,79.4815418 C96.685826,78.0611562 95.6929332,77.0212448 94.5085927,76.3385608 C91.5299142,74.6229395 88.6698248,73.5636557 85.3144516,75.0220113 C84.0913565,75.5528156 83.7386896,76.4253492 83.7448904,77.7287255 C83.7487658,78.640004 83.6604053,79.5520574 83.5991731,80.462561 C83.4007495,83.4009693 83.1961252,86.3393776 82.9930511,89.2777859 M90.2200087,90.4145593 C90.2200087,90.4145593 92.3298091,90.6540024 92.7762621,90.8020077 C93.5552295,91.0608232 94.359775,91.2359498 95.0736347,91.6559438 C95.4898591,91.9015861 95.8898066,92.1921724 96.2517745,92.5114298 C97.7562281,93.8396027 97.7290998,96.1449204 96.475001,97.7195105 C94.8333562,99.7815106 92.6065169,100.694339 90.0301112,100.877215 C88.3086319,100.998873 84.8447459,100.847768 83.2062014,100.388255 C81.5986607,99.9372649 81.1808861,99.0879781 81.1622839,97.5839036 C81.1080274,93.3072487 81.1483322,89.0329185 81.5265771,84.7647875 C81.7753816,81.9565619 81.9009465,79.1359379 82.0257363,76.3176386 C82.0838682,75.0173619 82.6729381,74.1339797 83.7820948,73.524136 C85.2291915,72.729092 87.356819,72.7120443 88.9767612,72.7407154 C90.6300324,72.7693866 92.1538632,73.3079398 93.6931959,73.8681901 C95.9339868,74.6833815 97.7562281,76.0348013 98.4003295,78.4610029 C99.0971372,81.0832533 98.4352086,83.478459 96.8191419,85.6071002 C95.8580278,86.8725065 94.6240814,87.8907208 93.2792968,88.7268343 C92.7444833,89.0600399 92.1926178,89.3730982 91.6198249,89.6373379 C91.3733456,89.7512478 90.2200087,90.4145593 90.2200087,90.4145593" id="Fill-28" fill="#758289"></path>
                    <path d="M72.9825057,91.0161116 C72.9282493,90.586044 72.9204983,90.143578 72.8112104,89.7282333 C72.13378,87.1524767 68.5799833,84.9649433 65.9640478,85.4903233 C64.5169511,85.7809095 63.1078339,86.2287998 62.1676473,87.4167165 C60.984857,88.9091675 60.4430677,90.6333127 60.6624187,92.5860524 C61.0127603,95.6995873 64.0418197,98.0087795 67.1514887,97.524469 C71.0145472,96.9231492 72.9383255,94.1769153 72.9825057,91.0161116 M73.48244,95.5771536 C72.5531047,96.4264404 71.7454589,97.3400436 70.7742687,98.0188531 C68.0002145,99.9591944 63.0442764,99.4570614 60.7794576,97.0889771 C59.6516988,95.9095843 59.1486641,94.4551032 59.0316252,92.8650152 C58.8859079,90.8789549 58.9827944,88.9223408 60.0369195,87.1408533 C61.9103168,83.9761751 65.7694997,82.634829 69.2287352,83.8762135 C70.6386276,84.382221 71.8167674,85.1571177 72.7763312,86.2923414 C73.0204852,86.5806029 73.2840165,86.7944744 73.7358951,86.6983872 C74.1528946,86.610049 74.468357,86.8657649 74.5784201,87.2718108 C74.6745315,87.6290382 74.7171616,88.0033133 74.7497154,88.372939 C74.9729419,90.8758553 75.1822167,93.3803215 75.4062183,95.8824629 C75.5100806,97.0409335 75.6612236,98.1947547 75.7364075,99.354775 C75.7619855,99.7538468 75.5945657,100.162992 75.2480996,100.18004 C74.3513181,100.224209 73.9164915,98.6023503 73.7653486,97.9646103 C73.5801016,97.1835145 73.5677001,96.362124 73.48244,95.5771536" id="Fill-30" fill="#758289"></path>
                    <path d="M109.601106,83.5353364 C110.652131,82.9262676 111.208647,82.0258376 111.847323,81.1920488 C114.085013,78.272238 116.33278,75.3586264 118.607675,72.4674869 C118.799898,72.2233944 119.247126,72.0017739 119.537785,72.0428435 C120.470221,72.1753508 120.667094,72.9200265 120.026093,73.6678018 C118.711537,75.1982228 117.359002,76.6984228 116.095602,78.2699133 C115.199596,79.3849897 114.457833,80.6217248 113.587404,81.7577234 C112.832465,82.7426171 111.981414,83.6531207 111.198571,84.6170922 C111.017974,84.8394875 110.861406,85.1354981 110.828852,85.4129111 C110.214979,90.6372646 110.13592,95.8887396 110.035933,101.13944 C110.022756,101.831422 109.894866,101.954631 109.173255,101.941458 C108.419091,101.928284 108.093552,101.657845 108.124556,101.064275 C108.302052,97.6446555 108.4997,94.2265862 108.651618,90.8054172 C108.723702,89.1874329 108.732228,87.5655741 108.714401,85.9452651 C108.710525,85.5872629 108.553182,85.1711433 108.333056,84.8844316 C105.965925,81.8088666 103.570115,78.7549987 101.187483,75.6910571 C100.985184,75.4299169 100.78521,75.1563784 100.646469,74.859593 C100.476723,74.4969413 100.483699,74.1249909 100.857294,73.8599762 C101.211511,73.6081348 101.575804,73.6166587 101.872664,73.9297169 C102.315242,74.3954298 102.744643,74.8758658 103.143815,75.3779989 C105.299346,78.0885875 107.444025,80.8077 109.601106,83.5353364" id="Fill-32" fill="#758289"></path>
                </g>
            </g>
        </g>
    </g>
</svg>