<?xml version="1.0" encoding="UTF-8" standalone="no"?>
<svg width="22px" height="22px" viewBox="0 0 22 22" version="1.1" xmlns="http://www.w3.org/2000/svg" xmlns:xlink="http://www.w3.org/1999/xlink">
    <!-- Generator: Sketch 3.8.1 (29687) - http://www.bohemiancoding.com/sketch -->
    <title>i_config</title>
    <desc>Created with Sketch.</desc>
    <defs></defs>
    <g id="home-logada-tema1" stroke="none" stroke-width="1" fill="none" fill-rule="evenodd">
        <g id="home-logada-1o-acesso" transform="translate(-133.000000, -311.000000)">
            <g id="configurações-tema" transform="translate(0.000000, 302.000000)">
                <g id="i_config" transform="translate(133.000000, 9.000000)">
                    <path d="M10.8957619,14.6666667 C8.81257143,14.6666667 7.12485714,12.9784286 7.12485714,10.8957619 C7.12485714,8.81257143 8.81257143,7.12485714 10.8957619,7.12485714 C12.9784286,7.12485714 14.6666667,8.81257143 14.6666667,10.8957619 C14.6666667,12.9784286 12.9784286,14.6666667 10.8957619,14.6666667 M21.0445714,8.80052381 L19.8722857,8.80052381 C19.6407619,7.80371429 19.25,6.87080952 18.7240952,6.028 L19.5527619,5.19933333 C19.8455714,4.90861905 19.8455714,4.43614286 19.5527619,4.14542857 L17.6460952,2.23666667 C17.3532857,1.94595238 16.8808095,1.94595238 16.5900952,2.23666667 L15.7614286,3.06533333 C14.9180952,2.54152381 13.9851905,2.1502381 12.991,1.9192381 L12.991,0.746952381 C12.991,0.333666667 12.6573333,0 12.2440476,0 L9.54538095,0 C9.13419048,0 8.80052381,0.333666667 8.80052381,0.746952381 L8.80052381,1.9192381 C7.80371429,2.1502381 6.87080952,2.54152381 6.028,3.06690476 L5.20142857,2.23666667 C4.90861905,1.94595238 4.43614286,1.94595238 4.14542857,2.23666667 L2.23666667,4.14542857 C1.94595238,4.43614286 1.94595238,4.90861905 2.23666667,5.20142857 L3.06690476,6.03009524 C2.54152381,6.87080952 2.1502381,7.80371429 1.9192381,8.80052381 L0.746952381,8.80052381 C0.333666667,8.80052381 0,9.13419048 0,9.54747619 L0,12.2440476 C0,12.6573333 0.333666667,12.991 0.746952381,12.991 L1.9192381,12.991 C2.1502381,13.9851905 2.54152381,14.9180952 3.06690476,15.7614286 L2.23666667,16.5900952 C1.94595238,16.882381 1.94595238,17.3532857 2.23666667,17.6460952 L4.14542857,19.5527619 C4.43614286,19.8455714 4.90861905,19.8455714 5.20142857,19.5527619 L6.03009524,18.7240952 C6.87290476,19.2479048 7.80580952,19.6407619 8.80052381,19.8722857 L8.80052381,21.0445714 C8.80052381,21.4557619 9.13419048,21.7915238 9.54747619,21.7915238 L12.2440476,21.7915238 C12.6573333,21.7915238 12.991,21.4557619 12.991,21.0445714 L12.991,19.8722857 C13.9851905,19.6407619 14.9180952,19.25 15.7614286,18.7240952 L16.5900952,19.5527619 C16.882381,19.8455714 17.355381,19.8455714 17.6460952,19.5527619 L19.5527619,17.6460952 C19.8455714,17.3532857 19.8455714,16.8808095 19.5527619,16.5900952 L18.7240952,15.7614286 C19.25,14.9180952 19.6407619,13.9851905 19.8722857,12.991 L21.0445714,12.991 C21.4557619,12.991 21.7915238,12.6573333 21.7915238,12.2440476 L21.7915238,9.54538095 C21.7915238,9.13419048 21.4557619,8.80052381 21.0445714,8.80052381" id="Fill-1" fill="#E7ECED"></path>
                    <path d="M10.8957619,14.6666667 C8.81257143,14.6666667 7.12485714,12.9784286 7.12485714,10.8957619 C7.12485714,8.81257143 8.81257143,7.12485714 10.8957619,7.12485714 C12.9784286,7.12485714 14.6666667,8.81257143 14.6666667,10.8957619 C14.6666667,12.9784286 12.9784286,14.6666667 10.8957619,14.6666667 M10.8957619,5.44657143 C7.88595238,5.44657143 5.44657143,7.88595238 5.44657143,10.8957619 C5.44657143,13.9034762 7.88595238,16.3423333 10.8957619,16.3423333 C13.9034762,16.3423333 16.3423333,13.9034762 16.3423333,10.8957619 C16.3423333,7.88595238 13.9034762,5.44657143 10.8957619,5.44657143" id="Fill-3" fill="#C7CAC7"></path>
                </g>
            </g>
        </g>
    </g>
</svg>