<?xml version="1.0" encoding="UTF-8" standalone="no"?>
<svg width="32px" height="32px" viewBox="0 0 32 32" version="1.1" xmlns="http://www.w3.org/2000/svg" xmlns:xlink="http://www.w3.org/1999/xlink">
    <!-- Generator: Sketch 3.8.1 (29687) - http://www.bohemiancoding.com/sketch -->
    <title>Shape</title>
    <desc>Created with Sketch.</desc>
    <defs>
        <path d="M25,36 C18.95,36 14,31.05 14,25 C14,18.95 18.95,14 25,14 C31.05,14 36,18.95 36,25 C36,31.05 31.05,36 25,36 L25,36 Z M30.5,21.04 L28.96,19.5 L25,23.46 L21.04,19.5 L19.5,21.04 L23.46,25 L19.5,28.96 L21.04,30.5 L25,26.54 L28.96,30.5 L30.5,28.96 L26.54,25 L30.5,21.04 L30.5,21.04 Z" id="path-1"></path>
        <filter x="-50%" y="-50%" width="200%" height="200%" filterUnits="objectBoundingBox" id="filter-2">
            <feMorphology radius="0.5" operator="dilate" in="SourceAlpha" result="shadowSpreadOuter1"></feMorphology>
            <feOffset dx="0" dy="0" in="shadowSpreadOuter1" result="shadowOffsetOuter1"></feOffset>
            <feGaussianBlur stdDeviation="2" in="shadowOffsetOuter1" result="shadowBlurOuter1"></feGaussianBlur>
            <feComposite in="shadowBlurOuter1" in2="SourceAlpha" operator="out" result="shadowBlurOuter1"></feComposite>
            <feColorMatrix values="0 0 0 0 0   0 0 0 0 0   0 0 0 0 0  0 0 0 0.33 0" type="matrix" in="shadowBlurOuter1"></feColorMatrix>
        </filter>
    </defs>
    <g id="Meus-presentes" stroke="none" stroke-width="1" fill="none" fill-rule="evenodd">
        <g id="meus-presentes" transform="translate(-592.000000, -620.000000)">
            <g id="presente-personalizado-copy" transform="translate(292.000000, 346.000000)">
                <g id="foto" transform="translate(291.000000, 265.000000)">
                    <g id="remover">
                        <g id="Shape" transform="translate(25.000000, 25.000000) scale(1, -1) translate(-25.000000, -25.000000) ">
                            <use fill="black" fill-opacity="1" filter="url(#filter-2)" xlink:href="#path-1"></use>
                            <use stroke-opacity="0.28" stroke="#818F97" stroke-width="1" fill-opacity="0.800000012" fill="#FFFFFF" fill-rule="evenodd" xlink:href="#path-1"></use>
                        </g>
                    </g>
                </g>
            </g>
        </g>
    </g>
</svg>