<?xml version="1.0" encoding="UTF-8" standalone="no"?>
<svg width="16px" height="16px" viewBox="0 0 16 16" version="1.1" xmlns="http://www.w3.org/2000/svg" xmlns:xlink="http://www.w3.org/1999/xlink">
    <!-- Generator: Sketch 3.8.1 (29687) - http://www.bohemiancoding.com/sketch -->
    <title>Page 1</title>
    <desc>Created with Sketch.</desc>
    <defs></defs>
    <g id="Meus-presentes" stroke="none" stroke-width="1" fill="none" fill-rule="evenodd">
        <g id="meus-presentes" transform="translate(-799.000000, -167.000000)" fill="#FFFFFF">
            <g id="lista-ufa" transform="translate(181.000000, 95.000000)">
                <g id="Page-1" transform="translate(618.000000, 72.000000)">
                    <path d="M5.97788592,10.351733 C3.50550186,10.351733 1.49437419,8.36168164 1.49437419,5.91531451 C1.49437419,3.46883184 3.50550186,1.47874198 5.97788592,1.47874198 C8.4500754,1.47874198 10.4612031,3.46883184 10.4612031,5.91531451 C10.4612031,8.36168164 8.4500754,10.351733 5.97788592,10.351733 M11.9555773,5.91531451 C11.9555773,2.64851091 9.27906817,0 5.97788592,0 C2.67650909,0 0,2.64851091 0,5.91531451 C0,9.18196406 2.67650909,11.8305135 5.97788592,11.8305135 C9.27906817,11.8305135 11.9555773,9.18196406 11.9555773,5.91531451" id="Fill-1"></path>
                    <path d="M15.5030717,13.2496791 L11.8456728,9.63057766 C11.3008205,10.4692298 10.579942,11.1826059 9.73238528,11.7217587 L13.3897842,15.3408601 C13.9735545,15.9185237 14.9201965,15.9185237 15.5030717,15.3408601 C16.086842,14.7641207 16.086842,13.8273427 15.5030717,13.2496791" id="Fill-3"></path>
                </g>
            </g>
        </g>
    </g>
</svg>