<?xml version="1.0" encoding="utf-8"?>
<!-- Generator: Adobe Illustrator 16.0.0, SVG Export Plug-In . SVG Version: 6.00 Build 0)  -->
<!DOCTYPE svg PUBLIC "-//W3C//DTD SVG 1.1 Basic//EN" "http://www.w3.org/Graphics/SVG/1.1/DTD/svg11-basic.dtd">
<svg version="1.1" baseProfile="basic" id="Layer_1"
	 xmlns="http://www.w3.org/2000/svg" xmlns:xlink="http://www.w3.org/1999/xlink" x="0px" y="0px" width="17px" height="15px"
	 viewBox="0 0 17 15" xml:space="preserve">
<path fill="#E9666A" d="M16.43,10.379l-5.112-8.605C10.646,0.648,9.619,0,8.5,0C7.381,0,6.351,0.648,5.684,1.773L0.57,10.379
	c-0.68,1.146-0.755,2.225-0.203,3.21C0.917,14.57,1.989,15,3.31,15H13.69c1.321,0,2.394-0.43,2.943-1.411
	C17.187,12.609,17.11,11.524,16.43,10.379z M8.5,12.258c-0.738,0-1.339-0.606-1.339-1.351c0-0.747,0.601-1.356,1.339-1.356
	c0.739,0,1.338,0.609,1.338,1.356C9.838,11.651,9.239,12.258,8.5,12.258z M9.911,5.777c-0.01,0.025-1.213,3.026-1.213,3.026
	C8.67,8.886,8.588,8.94,8.5,8.94c-0.089,0-0.165-0.055-0.198-0.137L7.098,5.802C7.022,5.598,6.989,5.415,6.989,5.231
	C6.989,4.387,7.664,3.7,8.5,3.7s1.512,0.687,1.512,1.531C10.012,5.415,9.979,5.598,9.911,5.777z"/>
</svg>
