<?xml version="1.0" encoding="utf-8"?>
<!-- Generator: Adobe Illustrator 16.0.0, SVG Export Plug-In . SVG Version: 6.00 Build 0)  -->
<!DOCTYPE svg PUBLIC "-//W3C//DTD SVG 1.1 Basic//EN" "http://www.w3.org/Graphics/SVG/1.1/DTD/svg11-basic.dtd">
<svg version="1.1" baseProfile="basic" id="Layer_1"
	 xmlns="http://www.w3.org/2000/svg" xmlns:xlink="http://www.w3.org/1999/xlink" x="0px" y="0px" width="15px" height="15px"
	 viewBox="0 -0.081 15 15" xml:space="preserve">
<g>
	<path fill="#B4DDC3" d="M7.5-0.081c-4.142,0-7.5,3.358-7.5,7.5c0,4.143,3.358,7.5,7.5,7.5c4.143,0,7.5-3.357,7.5-7.5
		C15,3.278,11.643-0.081,7.5-0.081z M11.188,5.418l-2.95,5.311c-0.183,0.322-0.502,0.544-0.87,0.595
		c-0.052,0.01-0.108,0.012-0.162,0.012c-0.312,0-0.612-0.123-0.835-0.345L4.009,8.628c-0.46-0.461-0.46-1.208,0-1.669
		c0.461-0.46,1.208-0.46,1.668,0l1.255,1.255l2.191-3.942C9.438,3.7,10.16,3.496,10.729,3.813
		C11.297,4.131,11.505,4.848,11.188,5.418z"/>
</g>
</svg>
