<?xml version="1.0" encoding="utf-8"?>
<!-- Generator: Adobe Illustrator 16.0.0, SVG Export Plug-In . SVG Version: 6.00 Build 0)  -->
<!DOCTYPE svg PUBLIC "-//W3C//DTD SVG 1.1//EN" "http://www.w3.org/Graphics/SVG/1.1/DTD/svg11.dtd">
<svg version="1.1" id="Layer_1" xmlns="http://www.w3.org/2000/svg" xmlns:xlink="http://www.w3.org/1999/xlink" x="0px" y="0px"
	 width="97px" height="31px" viewBox="0 0 97 31" enable-background="new 0 0 97 31" xml:space="preserve">
<path fill="#E8BE99" d="M87.319,30.75c-1.237,0-1.714-1.146-1.99-2.144c-0.981-3.535-1.512-3.827-4.606-3.756
	c-3.503,0.084-37.662,0.408-56.639,0.408c-0.001,0,0,0-0.001,0c-7.378,0-11.686-0.049-12.802-0.144
	c-6.698-0.57-10.274-3.614-10.34-8.802C0.836,8.149,3.862,3.497,10.462,1.671C14.286,0.614,31.276,0.5,38.403,0.5
	c19.594,0,43.49,0.752,47.928,1.968c3.948,1.081,6.731,3.024,8.507,5.943c1.89,3.103,2.191,7.755,0.809,12.447
	c-1.322,4.487-3.937,8.049-6.992,9.527C88.146,30.63,87.71,30.75,87.319,30.75z M81.295,23.843c3.282,0,4.015,0.958,4.997,4.496
	c0.345,1.24,0.697,1.411,1.027,1.411c0.233,0,0.536-0.09,0.899-0.266c2.807-1.358,5.225-4.688,6.469-8.909
	c1.305-4.426,1.041-8.779-0.703-11.645c-1.638-2.689-4.227-4.488-7.917-5.498C81.847,2.276,58.015,1.5,38.403,1.5
	C23.646,1.5,13.3,1.924,10.729,2.635C4.636,4.32,1.843,8.663,1.94,16.3c0.06,4.661,3.23,7.292,9.425,7.819
	c1.088,0.093,5.367,0.14,12.717,0.14c18.971,0,53.115-0.324,56.617-0.408C80.907,23.846,81.105,23.843,81.295,23.843z"/>
<path fill="#F7CBA5" d="M80.711,24.351c3.432-0.083,4.082,0.457,5.1,4.122c0.441,1.59,1.082,2.209,2.626,1.462
	c6.367-3.081,9.769-15.032,5.975-21.264c-1.952-3.208-4.956-4.829-8.212-5.72c-7.176-1.965-68.338-2.806-75.604-0.797
	C3.801,4.032,1.347,8.986,1.44,16.307c0.077,6.042,4.998,7.895,9.883,8.311C15.975,25.013,75.979,24.464,80.711,24.351z"/>
<path id="Adicionado" fill="#FFFFFF" d="M9.432,16.208c0,0.479,0.372,0.864,0.852,0.864c0.384,0,0.696-0.217,0.852-0.576l0.588-1.38
	h3.696l0.564,1.319c0.168,0.385,0.456,0.637,0.888,0.637c0.492,0,0.876-0.396,0.876-0.889c0-0.119-0.036-0.24-0.096-0.372
	L14.724,9.2c-0.204-0.456-0.564-0.732-1.068-0.732h-0.108c-0.504,0-0.876,0.276-1.08,0.732L9.54,15.812
	C9.48,15.944,9.432,16.076,9.432,16.208L9.432,16.208z M12.408,13.484l1.164-2.772l1.164,2.772H12.408z M26.279,9.08
	c0-0.504-0.408-0.912-0.912-0.912s-0.912,0.408-0.912,0.912v2.328c-0.432-0.516-1.032-0.96-2.004-0.96
	c-1.524,0-2.928,1.176-2.928,3.324v0.024c0,2.148,1.428,3.324,2.928,3.324c0.948,0,1.56-0.444,2.004-1.044v0.084
	c0,0.504,0.408,0.912,0.912,0.912s0.912-0.408,0.912-0.912V9.08z M22.919,11.996c0.852,0,1.56,0.708,1.56,1.776v0.024
	c0,1.068-0.708,1.776-1.56,1.776s-1.572-0.708-1.572-1.776v-0.024C21.347,12.692,22.067,11.996,22.919,11.996L22.919,11.996z
	 M28.81,9.056c0,0.528,0.444,0.864,1.02,0.864c0.576,0,1.02-0.336,1.02-0.864V9.032c0-0.528-0.444-0.852-1.02-0.852
	c-0.576,0-1.02,0.324-1.02,0.852V9.056z M28.918,16.16c0,0.504,0.408,0.912,0.912,0.912s0.912-0.408,0.912-0.912v-4.752
	c0-0.504-0.408-0.912-0.912-0.912s-0.912,0.408-0.912,0.912V16.16z M36.417,17.145c1.056,0,1.74-0.336,2.28-0.828
	c0.156-0.145,0.264-0.336,0.264-0.576c0-0.432-0.336-0.78-0.768-0.78c-0.216,0-0.396,0.096-0.492,0.168
	c-0.348,0.276-0.72,0.444-1.2,0.444c-0.996,0-1.632-0.792-1.632-1.776v-0.024c0-0.948,0.648-1.752,1.56-1.752
	c0.48,0,0.816,0.156,1.14,0.408c0.108,0.084,0.288,0.18,0.528,0.18c0.456,0,0.828-0.36,0.828-0.816c0-0.312-0.168-0.528-0.288-0.624
	c-0.54-0.456-1.224-0.72-2.196-0.72c-1.968,0-3.372,1.512-3.372,3.348v0.024C33.069,15.656,34.485,17.145,36.417,17.145
	L36.417,17.145z M41.132,9.056c0,0.528,0.444,0.864,1.02,0.864s1.02-0.336,1.02-0.864V9.032c0-0.528-0.444-0.852-1.02-0.852
	s-1.02,0.324-1.02,0.852V9.056z M41.24,16.16c0,0.504,0.408,0.912,0.912,0.912s0.912-0.408,0.912-0.912v-4.752
	c0-0.504-0.408-0.912-0.912-0.912s-0.912,0.408-0.912,0.912V16.16z M48.859,17.145c2.004,0,3.492-1.5,3.492-3.349v-0.024
	c0-1.848-1.477-3.324-3.468-3.324c-2.004,0-3.492,1.5-3.492,3.348v0.024C45.392,15.668,46.867,17.145,48.859,17.145L48.859,17.145z
	 M48.883,15.572c-1.008,0-1.692-0.828-1.692-1.776v-0.024c0-0.948,0.624-1.752,1.668-1.752c1.008,0,1.691,0.828,1.691,1.776v0.024
	C50.551,14.768,49.928,15.572,48.883,15.572L48.883,15.572z M54.594,16.16c0,0.504,0.408,0.912,0.912,0.912s0.912-0.408,0.912-0.912
	v-2.748c0-0.864,0.444-1.308,1.141-1.308c0.695,0,1.104,0.444,1.104,1.308v2.748c0,0.504,0.408,0.912,0.912,0.912
	s0.912-0.408,0.912-0.912v-3.324c0-1.476-0.804-2.388-2.184-2.388c-0.924,0-1.465,0.492-1.885,1.032v-0.072
	c0-0.504-0.408-0.912-0.912-0.912s-0.912,0.408-0.912,0.912V16.16z M64.817,17.12c0.888,0,1.5-0.324,1.944-0.815v0.012
	c0,0.384,0.348,0.756,0.876,0.756c0.491,0,0.888-0.385,0.888-0.877v-2.927c0-0.864-0.216-1.572-0.695-2.052
	c-0.457-0.456-1.177-0.72-2.172-0.72c-0.853,0-1.477,0.12-2.053,0.336c-0.288,0.108-0.492,0.384-0.492,0.708
	c0,0.42,0.336,0.744,0.756,0.744c0.084,0,0.156-0.012,0.264-0.048c0.349-0.108,0.757-0.18,1.261-0.18c0.912,0,1.38,0.42,1.38,1.176
	v0.108c-0.456-0.156-0.924-0.264-1.572-0.264c-1.523,0-2.592,0.648-2.592,2.052v0.024C62.609,16.424,63.605,17.12,64.817,17.12
	L64.817,17.12z M65.369,15.86c-0.588,0-0.996-0.288-0.996-0.78v-0.024c0-0.576,0.48-0.888,1.26-0.888
	c0.445,0,0.853,0.096,1.164,0.24v0.324C66.797,15.392,66.222,15.86,65.369,15.86L65.369,15.86z M77.488,9.08
	c0-0.504-0.408-0.912-0.912-0.912s-0.912,0.408-0.912,0.912v2.328c-0.432-0.516-1.031-0.96-2.004-0.96
	c-1.523,0-2.928,1.176-2.928,3.324v0.024c0,2.148,1.428,3.324,2.928,3.324c0.948,0,1.561-0.444,2.004-1.044v0.084
	c0,0.504,0.408,0.912,0.912,0.912s0.912-0.408,0.912-0.912V9.08z M74.129,11.996c0.852,0,1.56,0.708,1.56,1.776v0.024
	c0,1.068-0.708,1.776-1.56,1.776s-1.572-0.708-1.572-1.776v-0.024C72.557,12.692,73.277,11.996,74.129,11.996L74.129,11.996z
	 M83.199,17.145c2.004,0,3.492-1.5,3.492-3.349v-0.024c0-1.848-1.476-3.324-3.468-3.324c-2.004,0-3.492,1.5-3.492,3.348v0.024
	C79.731,15.668,81.207,17.145,83.199,17.145L83.199,17.145z M83.224,15.572c-1.008,0-1.692-0.828-1.692-1.776v-0.024
	c0-0.948,0.625-1.752,1.668-1.752c1.008,0,1.692,0.828,1.692,1.776v0.024C84.892,14.768,84.268,15.572,83.224,15.572L83.224,15.572z
	"/>
</svg>
