<svg width="24px" height="24px" viewBox="317 29 24 24" version="1.1" xmlns="http://www.w3.org/2000/svg" xmlns:xlink="http://www.w3.org/1999/xlink">
    <!-- Generator: Sketch 3.8.1 (29687) - http://www.bohemiancoding.com/sketch -->
    <desc>Created with Sketch.</desc>
    <defs></defs>
    <path d="M329,52 C322.95,52 318,47.05 318,41 C318,34.95 322.95,30 329,30 C335.05,30 340,34.95 340,41 C340,47.05 335.05,52 329,52 L329,52 Z M334.5,37.04 L332.96,35.5 L329,39.46 L325.04,35.5 L323.5,37.04 L327.46,41 L323.5,44.96 L325.04,46.5 L329,42.54 L332.96,46.5 L334.5,44.96 L330.54,41 L334.5,37.04 L334.5,37.04 Z" id="Shape" stroke-opacity="0.28" stroke="#818F97" stroke-width="1" fill-opacity="0.479999989" fill="#818F97" fill-rule="evenodd" transform="translate(329.000000, 41.000000) scale(1, -1) translate(-329.000000, -41.000000) "></path>
</svg>